<svg id="icon" xmlns="http://www.w3.org/2000/svg" xmlns:xlink="http://www.w3.org/1999/xlink" width="500" height="500" viewBox="0 0 500 500">
  <metadata><?xpacket begin="﻿" id="W5M0MpCehiHzreSzNTczkc9d"?>
<x:xmpmeta xmlns:x="adobe:ns:meta/" x:xmptk="Adobe XMP Core 5.6-c138 79.159824, 2016/09/14-01:09:01        ">
   <rdf:RDF xmlns:rdf="http://www.w3.org/1999/02/22-rdf-syntax-ns#">
      <rdf:Description rdf:about=""/>
   </rdf:RDF>
</x:xmpmeta>
                                                                                                    
                                                                                                    
                                                                                                    
                                                                                                    
                                                                                                    
                                                                                                    
                                                                                                    
                                                                                                    
                                                                                                    
                                                                                                    
                                                                                                    
                                                                                                    
                                                                                                    
                                                                                                    
                                                                                                    
                                                                                                    
                                                                                                    
                                                                                                    
                                                                                                    
                                                                                                    
                           
<?xpacket end="w"?></metadata>
<defs>
    <style>
      .cls-1 {
        fill: #002121;
      }

      .cls-2, .cls-3 {
        fill: #fff;
      }

      .cls-2 {
        fill-rule: evenodd;
        filter: url(#filter);
      }

      .cls-3 {
        font-size: 67px;
        filter: url(#filter-2);
        font-family: Roboto;
        font-weight: 500;
      }
    </style>
    <filter id="filter" x="117" y="73" width="287" height="289" filterUnits="userSpaceOnUse">
      <feOffset result="offset" dx="10" dy="17.321" in="SourceAlpha"/>
      <feGaussianBlur result="blur" stdDeviation="4.472"/>
      <feFlood result="flood" flood-opacity="0.2"/>
      <feComposite result="composite" operator="in" in2="blur"/>
      <feBlend result="blend" in="SourceGraphic"/>
    </filter>
    <filter id="filter-2" x="70" y="367" width="381" height="92" filterUnits="userSpaceOnUse">
      <feOffset result="offset" dx="10" dy="17.321" in="SourceAlpha"/>
      <feGaussianBlur result="blur" stdDeviation="4.472"/>
      <feFlood result="flood" flood-opacity="0.2"/>
      <feComposite result="composite" operator="in" in2="blur"/>
      <feBlend result="blend" in="SourceGraphic"/>
    </filter>
  </defs>
  <rect class="cls-1" y="-3" width="500" height="503"/>
  <path class="cls-2" d="M373.007,80.109A4.713,4.713,0,0,0,368.917,76a128.153,128.153,0,0,0-106.631,36.824l-31.347,31.485-45.249,5.862a4.694,4.694,0,0,0-2.725,1.345l-43.626,43.819a4.731,4.731,0,0,0,2.47,7.986l32.986,6.136,6.482,6.511-13.8,7.505a4.735,4.735,0,0,0-1.086,7.495l52.328,52.559a4.691,4.691,0,0,0,7.462-1.091l7.473-13.86,6.482,6.51,6.11,33.132a4.7,4.7,0,0,0,7.951,2.48l43.627-43.819a4.733,4.733,0,0,0,1.339-2.736L305,218.694l31.347-31.486A129.4,129.4,0,0,0,373.007,80.109ZM175.512,199.983l-23.2-4.316,36.17-36.33,31.565-4.089Zm45.4,72.386-43.411-43.6,10.715-5.828,38.5,38.668Zm69.124-11.032-36.17,36.33-4.3-23.3,44.538-44.735Zm39.656-80.809-85.2,85.575L183.739,205.08l85.2-85.575a119.687,119.687,0,0,1,44.08-28.025A56.412,56.412,0,0,0,357.6,136.254,120.39,120.39,0,0,1,329.692,180.528Zm30.734-53.352a47.03,47.03,0,0,1-38.371-38.54,119.511,119.511,0,0,1,42.013-3.658A121.036,121.036,0,0,1,360.426,127.176ZM264.348,144.6a28.786,28.786,0,0,0,0,40.534,28.479,28.479,0,0,0,40.355,0h0a28.783,28.783,0,0,0,0-40.534A28.481,28.481,0,0,0,264.348,144.6Zm33.7,33.852a19.09,19.09,0,0,1-27.052,0,19.3,19.3,0,0,1,0-27.171,19.093,19.093,0,0,1,27.051,0A19.3,19.3,0,0,1,298.052,178.457ZM187.234,263.485a4.689,4.689,0,0,0-6.652,0l-40.356,40.533a4.739,4.739,0,0,0,0,6.681,4.69,4.69,0,0,0,6.653,0l40.355-40.533A4.74,4.74,0,0,0,187.234,263.485Zm6.207,12.917L175.26,294.664a4.739,4.739,0,0,0,0,6.681,4.688,4.688,0,0,0,6.652,0l18.182-18.262a4.739,4.739,0,0,0,0-6.681A4.69,4.69,0,0,0,193.441,276.4ZM168.9,303.015a4.728,4.728,0,1,0,4.34,2.916A4.749,4.749,0,0,0,168.9,303.015Zm4.34,2.916c0.119,0.284-.113-0.283,0,0h0Zm-17.644,8.489-2.5,2.515a4.739,4.739,0,0,0,0,6.681,4.69,4.69,0,0,0,6.652,0l2.5-2.515a4.739,4.739,0,0,0,0-6.681A4.69,4.69,0,0,0,155.591,314.42ZM152.2,272.839a4.689,4.689,0,0,0-6.652,0L127.365,291.1a4.739,4.739,0,0,0,0,6.68,4.69,4.69,0,0,0,6.653,0L152.2,279.519A4.738,4.738,0,0,0,152.2,272.839Zm7.507-1.813a4.726,4.726,0,0,0,.971-8.8,4.717,4.717,0,0,0-5.5.942,4.794,4.794,0,0,0-.535,5.88c-0.037-.057-0.066-0.1.01,0.018s0.052,0.074.014,0.018A4.747,4.747,0,0,0,159.706,271.026Zm12.164-11.263,2.5-2.514a4.738,4.738,0,0,0,0-6.681,4.687,4.687,0,0,0-6.651,0l-2.5,2.515a4.739,4.739,0,0,0,0,6.681A4.69,4.69,0,0,0,171.87,259.763Z"/>
  <text id="Animations" class="cls-3" x="79.022" y="420.521">Animations</text>
</svg>
