<svg id="icon" xmlns="http://www.w3.org/2000/svg" xmlns:xlink="http://www.w3.org/1999/xlink" width="500" height="500" viewBox="0 0 500 500">
  <metadata><?xpacket begin="﻿" id="W5M0MpCehiHzreSzNTczkc9d"?>
<x:xmpmeta xmlns:x="adobe:ns:meta/" x:xmptk="Adobe XMP Core 5.6-c138 79.159824, 2016/09/14-01:09:01        ">
   <rdf:RDF xmlns:rdf="http://www.w3.org/1999/02/22-rdf-syntax-ns#">
      <rdf:Description rdf:about=""/>
   </rdf:RDF>
</x:xmpmeta>
                                                                                                    
                                                                                                    
                                                                                                    
                                                                                                    
                                                                                                    
                                                                                                    
                                                                                                    
                                                                                                    
                                                                                                    
                                                                                                    
                                                                                                    
                                                                                                    
                                                                                                    
                                                                                                    
                                                                                                    
                                                                                                    
                                                                                                    
                                                                                                    
                                                                                                    
                                                                                                    
                           
<?xpacket end="w"?></metadata>
<defs>
    <style>
      .cls-1 {
        fill: #002121;
      }

      .cls-2, .cls-3 {
        fill: #fff;
      }

      .cls-2 {
        fill-rule: evenodd;
        filter: url(#filter);
      }

      .cls-3 {
        font-size: 48px;
        filter: url(#filter-2);
        text-anchor: middle;
        font-family: Roboto;
        font-weight: 500;
      }
    </style>
    <filter id="filter" x="144" y="86" width="233" height="239" filterUnits="userSpaceOnUse">
      <feOffset result="offset" dx="10" dy="17.321" in="SourceAlpha"/>
      <feGaussianBlur result="blur" stdDeviation="4.472"/>
      <feFlood result="flood" flood-opacity="0.2"/>
      <feComposite result="composite" operator="in" in2="blur"/>
      <feBlend result="blend" in="SourceGraphic"/>
    </filter>
    <filter id="filter-2" x="97" y="340" width="327" height="145" filterUnits="userSpaceOnUse">
      <feOffset result="offset" dx="10" dy="17.321" in="SourceAlpha"/>
      <feGaussianBlur result="blur" stdDeviation="4.472"/>
      <feFlood result="flood" flood-opacity="0.2"/>
      <feComposite result="composite" operator="in" in2="blur"/>
      <feBlend result="blend" in="SourceGraphic"/>
    </filter>
  </defs>
  <rect class="cls-1" y="-3" width="500" height="503"/>
  <path id="Forma_1" data-name="Forma 1" class="cls-2" d="M330.083,95.669H323.2a5.747,5.747,0,0,0,.358-1.759,5.894,5.894,0,0,0-11.787,0,5.517,5.517,0,0,0,.359,1.759H289.585a5.719,5.719,0,0,0,.359-1.759,5.894,5.894,0,0,0-11.787,0,5.522,5.522,0,0,0,.365,1.759H255.969a5.714,5.714,0,0,0,.353-1.759,5.888,5.888,0,0,0-11.776,0,5.543,5.543,0,0,0,.356,1.759H222.347a5.811,5.811,0,0,0,.362-1.759,5.891,5.891,0,0,0-11.782,0,5.624,5.624,0,0,0,.353,1.759H188.734a5.663,5.663,0,0,0,.362-1.759,5.893,5.893,0,0,0-11.785,0,5.626,5.626,0,0,0,.356,1.759h-6.893a16.832,16.832,0,0,0-16.85,16.786v158.71a16.826,16.826,0,0,0,16.85,16.786H311.055l35.878-35.743V112.455A16.834,16.834,0,0,0,330.083,95.669Zm7.659,152.748-1.9,1.9H321.407a12.263,12.263,0,0,0-12.255,12.208V276.9l-1.9,1.9H170.774a7.653,7.653,0,0,1-7.659-7.63V118.559H337.742V248.417ZM229.328,233.693a8.689,8.689,0,1,1-8.722,8.692A8.706,8.706,0,0,1,229.328,233.693Zm66.858,0a8.689,8.689,0,1,1-8.719,8.692A8.7,8.7,0,0,1,296.186,233.693ZM195.951,173.235h14.19l16.514,54.831a4.366,4.366,0,0,0,4.177,3.1h63.959a4.351,4.351,0,0,0,4.249-3.41l10.124-45.365a3.968,3.968,0,0,0,.006-0.464,4.029,4.029,0,0,0,.1-0.469c0-.14-0.072-0.256-0.084-0.39a3.852,3.852,0,0,0-.168-0.843,4,4,0,0,0-.3-0.769,4.392,4.392,0,0,0-.454-0.671,5.286,5.286,0,0,0-.575-0.611,5.831,5.831,0,0,0-.67-0.442,4.513,4.513,0,0,0-.8-0.36,2.353,2.353,0,0,0-.365-0.146,2.178,2.178,0,0,0-.485-0.012,3.231,3.231,0,0,0-.467-0.1H294.8v-3.937a2.884,2.884,0,0,0-2.878-2.862h-15.33a2.884,2.884,0,0,0-2.878,2.862V177.1l-20.817-.006,4.99-6.99a4.16,4.16,0,0,0-.981-5.8l-18.184-12.876a4.2,4.2,0,0,0-5.825.99l-12.925,18.107a4.082,4.082,0,0,0-.7,2.775l-1.7-5.658a4.374,4.374,0,0,0-4.179-3.1H195.951A4.349,4.349,0,1,0,195.951,173.235ZM234.314,185.8l4.823,3.413a4.208,4.208,0,0,0,5.832-.984l1.139-1.6a4.928,4.928,0,0,0-.245,1.165v27.827a5.239,5.239,0,0,0,5.233,5.21h27.922a5.241,5.241,0,0,0,5.23-5.21v-24.3h7.659a2.872,2.872,0,0,0,2.872-2.867V185.81h4.685l-8.179,36.664H234.076L223.032,185.8h11.282Zm-13.352-9.457,1.08,0.757H220.6c-0.06,0-.117.039-0.177,0.039l-0.631-2.1A4.332,4.332,0,0,0,220.962,176.341Zm-12.449,6.313-16.924,1.83,16.924,1.845v-3.675Zm3.48,8.274-20.4,2.205,20.4,2.218v-4.423Zm3.59,11.23-23.994,2.6,23.994,2.61v-5.21Z"/>
  <text id="Beautiful_cart_page" data-name="Beautiful cart page" class="cls-3" x="249.021" y="379.522">Beautiful cart<tspan x="249.021" dy="57.6">page</tspan></text>
</svg>
