<svg id="icon" xmlns="http://www.w3.org/2000/svg" xmlns:xlink="http://www.w3.org/1999/xlink" width="500" height="500" viewBox="0 0 500 500">
  <metadata><?xpacket begin="﻿" id="W5M0MpCehiHzreSzNTczkc9d"?>
<x:xmpmeta xmlns:x="adobe:ns:meta/" x:xmptk="Adobe XMP Core 5.6-c138 79.159824, 2016/09/14-01:09:01        ">
   <rdf:RDF xmlns:rdf="http://www.w3.org/1999/02/22-rdf-syntax-ns#">
      <rdf:Description rdf:about=""/>
   </rdf:RDF>
</x:xmpmeta>
                                                                                                    
                                                                                                    
                                                                                                    
                                                                                                    
                                                                                                    
                                                                                                    
                                                                                                    
                                                                                                    
                                                                                                    
                                                                                                    
                                                                                                    
                                                                                                    
                                                                                                    
                                                                                                    
                                                                                                    
                                                                                                    
                                                                                                    
                                                                                                    
                                                                                                    
                                                                                                    
                           
<?xpacket end="w"?></metadata>
<defs>
    <style>
      .cls-1 {
        fill: #002121;
      }

      .cls-2, .cls-3 {
        fill: #fff;
      }

      .cls-2 {
        fill-rule: evenodd;
        filter: url(#filter);
      }

      .cls-3 {
        font-size: 48px;
        filter: url(#filter-2);
        text-anchor: middle;
        font-family: Roboto;
        font-weight: 500;
      }
    </style>
    <filter id="filter" x="147" y="86" width="231" height="239" filterUnits="userSpaceOnUse">
      <feOffset result="offset" dx="10" dy="17.321" in="SourceAlpha"/>
      <feGaussianBlur result="blur" stdDeviation="4.472"/>
      <feFlood result="flood" flood-opacity="0.2"/>
      <feComposite result="composite" operator="in" in2="blur"/>
      <feBlend result="blend" in="SourceGraphic"/>
    </filter>
    <filter id="filter-2" x="55" y="337" width="415" height="144" filterUnits="userSpaceOnUse">
      <feOffset result="offset" dx="10" dy="17.321" in="SourceAlpha"/>
      <feGaussianBlur result="blur" stdDeviation="4.472"/>
      <feFlood result="flood" flood-opacity="0.2"/>
      <feComposite result="composite" operator="in" in2="blur"/>
      <feBlend result="blend" in="SourceGraphic"/>
    </filter>
  </defs>
  <rect class="cls-1" y="-3" width="500" height="503"/>
  <path class="cls-2" d="M346.925,139.755l-39.29-49.786A5.118,5.118,0,0,0,303.607,88H200.432a5.12,5.12,0,0,0-4.028,1.969l-39.29,49.786A5.008,5.008,0,0,0,156,142.923v139.94A5.155,5.155,0,0,0,161.142,288H342.855A5.154,5.154,0,0,0,348,282.863V142.923A4.734,4.734,0,0,0,346.925,139.755Zm-13.968-1.113h-75.8V98.274h43.961ZM202.917,98.274h43.961v40.368h-75.8ZM166.283,277.726V148.916h171.43v128.81H166.283ZM276.4,190.269l-34.448,34.418-14.311-14.3a5.148,5.148,0,0,0-7.284,7.277L238.309,235.6a5.161,5.161,0,0,0,3.642,1.5,5.236,5.236,0,0,0,3.641-1.5l38.048-38.014a5.137,5.137,0,0,0,0-7.277A5.06,5.06,0,0,0,276.4,190.269Z"/>
  <text id="Shipping_Address_Management" data-name="Shipping Address  Management" class="cls-3" x="258.022" y="375.521">Shipping Address <tspan x="258.022" dy="57.6">Management</tspan></text>
</svg>
