<svg id="icon" xmlns="http://www.w3.org/2000/svg" xmlns:xlink="http://www.w3.org/1999/xlink" width="500" height="500" viewBox="0 0 500 500">
  <metadata><?xpacket begin="﻿" id="W5M0MpCehiHzreSzNTczkc9d"?>
<x:xmpmeta xmlns:x="adobe:ns:meta/" x:xmptk="Adobe XMP Core 5.6-c138 79.159824, 2016/09/14-01:09:01        ">
   <rdf:RDF xmlns:rdf="http://www.w3.org/1999/02/22-rdf-syntax-ns#">
      <rdf:Description rdf:about=""/>
   </rdf:RDF>
</x:xmpmeta>
                                                                                                    
                                                                                                    
                                                                                                    
                                                                                                    
                                                                                                    
                                                                                                    
                                                                                                    
                                                                                                    
                                                                                                    
                                                                                                    
                                                                                                    
                                                                                                    
                                                                                                    
                                                                                                    
                                                                                                    
                                                                                                    
                                                                                                    
                                                                                                    
                                                                                                    
                                                                                                    
                           
<?xpacket end="w"?></metadata>
<defs>
    <style>
      .cls-1 {
        fill: #002121;
      }

      .cls-2 {
        font-size: 43px;
        filter: url(#filter);
        text-anchor: middle;
        font-family: Roboto;
        font-weight: 500;
      }

      .cls-2, .cls-3 {
        fill: #fff;
      }

      .cls-3 {
        fill-rule: evenodd;
        filter: url(#filter-2);
      }
    </style>
    <filter id="filter" x="143" y="344" width="230" height="134" filterUnits="userSpaceOnUse">
      <feOffset result="offset" dx="10" dy="17.321" in="SourceAlpha"/>
      <feGaussianBlur result="blur" stdDeviation="4.472"/>
      <feFlood result="flood" flood-opacity="0.2"/>
      <feComposite result="composite" operator="in" in2="blur"/>
      <feBlend result="blend" in="SourceGraphic"/>
    </filter>
    <filter id="filter-2" x="135" y="90" width="251" height="236" filterUnits="userSpaceOnUse">
      <feOffset result="offset" dx="10" dy="17.321" in="SourceAlpha"/>
      <feGaussianBlur result="blur" stdDeviation="4.472"/>
      <feFlood result="flood" flood-opacity="0.2"/>
      <feComposite result="composite" operator="in" in2="blur"/>
      <feBlend result="blend" in="SourceGraphic"/>
    </filter>
  </defs>
  <rect class="cls-1" y="-3" width="500" height="503"/>
  <text id="Product_Searching" data-name="Product Searching" class="cls-2" x="248.022" y="379.522">Product<tspan x="248.022" dy="51.6">Searching</tspan></text>
  <path id="Forma_1" data-name="Forma 1" class="cls-3" d="M353.435,233.87l-28.146-28.079,26.868-53.6c2.844-5.675,2.9-11.477.143-15.921s-7.978-6.991-14.337-6.991H300.4a57.744,57.744,0,0,0-104.409,0H173.529V97.317A5.323,5.323,0,0,0,168.2,92H149.33a5.316,5.316,0,1,0,0,10.633h13.54V259.947a5.322,5.322,0,0,0,5.329,5.317h6.83a15.969,15.969,0,0,0-2.056,7.86,15.608,15.608,0,1,0,31.211,0,15.983,15.983,0,0,0-2.056-7.86h54.335a15.969,15.969,0,0,0-2.056,7.86,15.608,15.608,0,1,0,31.212,0,15.983,15.983,0,0,0-2.056-7.86h9.181a5.317,5.317,0,1,0,0-10.633H173.529V239.3H288.145a33.029,33.029,0,0,0,16.125-4.693l24.215,24.155a5.34,5.34,0,0,0,7.537,0l17.414-17.374A5.308,5.308,0,0,0,353.435,233.87Zm-83.422,34.011a5.252,5.252,0,1,1-4.947,5.243A5.108,5.108,0,0,1,270.013,267.881Zm-81.435,0a5.252,5.252,0,1,1-4.946,5.243A5.108,5.108,0,0,1,188.578,267.881Zm129.933-72.344h-3.5L299.533,180.1a56.517,56.517,0,0,0,3.071-7.059h27.184Zm19.452-55.63c2.582,0,4.5.71,5.27,1.948s0.545,3.27-.609,5.574l-7.506,14.976H305.26a58.256,58.256,0,0,0,.641-8.629,57.35,57.35,0,0,0-1.7-13.869h33.765ZM248.194,106.84a47.047,47.047,0,0,1,47.049,46.936,46.992,46.992,0,0,1-47.049,46.935A46.936,46.936,0,1,1,248.194,106.84Zm-74.665,33.067h18.662a57.41,57.41,0,0,0-1.054,22.5H173.529v-22.5h0Zm26.7,88.761h-26.7v-22.5h26.7v22.5Zm-26.7-33.131v-22.5h20.292a57.317,57.317,0,0,0,6.412,12.713v9.788h-26.7Zm37.363,33.131v-22.5h13.437a57.214,57.214,0,0,0,13.268,4.185v18.313H210.892Zm64.069,0H248.255V211.344a57.631,57.631,0,0,0,23.891-5.174h2.815v22.5Zm13.184,0h-2.526V216l10.734,10.707A20.6,20.6,0,0,1,288.145,228.668Zm44.108,18.817-48.5-48.38a56.42,56.42,0,0,0,9.88-9.855l48.5,48.38Z"/>
</svg>
