<svg id="icon" xmlns="http://www.w3.org/2000/svg" xmlns:xlink="http://www.w3.org/1999/xlink" width="500" height="500" viewBox="0 0 500 500">
  <metadata><?xpacket begin="﻿" id="W5M0MpCehiHzreSzNTczkc9d"?>
<x:xmpmeta xmlns:x="adobe:ns:meta/" x:xmptk="Adobe XMP Core 5.6-c138 79.159824, 2016/09/14-01:09:01        ">
   <rdf:RDF xmlns:rdf="http://www.w3.org/1999/02/22-rdf-syntax-ns#">
      <rdf:Description rdf:about=""/>
   </rdf:RDF>
</x:xmpmeta>
                                                                                                    
                                                                                                    
                                                                                                    
                                                                                                    
                                                                                                    
                                                                                                    
                                                                                                    
                                                                                                    
                                                                                                    
                                                                                                    
                                                                                                    
                                                                                                    
                                                                                                    
                                                                                                    
                                                                                                    
                                                                                                    
                                                                                                    
                                                                                                    
                                                                                                    
                                                                                                    
                           
<?xpacket end="w"?></metadata>
<defs>
    <style>
      .cls-1 {
        fill: #002121;
      }

      .cls-2 {
        font-size: 43px;
        filter: url(#filter);
        text-anchor: middle;
        font-family: Roboto;
        font-weight: 500;
      }

      .cls-2, .cls-3 {
        fill: #fff;
      }

      .cls-3 {
        fill-rule: evenodd;
        filter: url(#filter-2);
      }
    </style>
    <filter id="filter" x="105" y="383" width="311" height="73" filterUnits="userSpaceOnUse">
      <feOffset result="offset" dx="10" dy="17.321" in="SourceAlpha"/>
      <feGaussianBlur result="blur" stdDeviation="4.472"/>
      <feFlood result="flood" flood-opacity="0.2"/>
      <feComposite result="composite" operator="in" in2="blur"/>
      <feBlend result="blend" in="SourceGraphic"/>
    </filter>
    <filter id="filter-2" x="142" y="100" width="237" height="237" filterUnits="userSpaceOnUse">
      <feOffset result="offset" dx="10" dy="17.321" in="SourceAlpha"/>
      <feGaussianBlur result="blur" stdDeviation="4.472"/>
      <feFlood result="flood" flood-opacity="0.2"/>
      <feComposite result="composite" operator="in" in2="blur"/>
      <feBlend result="blend" in="SourceGraphic"/>
    </filter>
  </defs>
  <rect class="cls-1" y="-3" width="500" height="503"/>
  <text id="Profile_Picture" data-name="Profile Picture" class="cls-2" x="249.021" y="418.522">Profile Picture</text>
  <path id="Forma_1" data-name="Forma 1" class="cls-3" d="M250,247.2a3.3,3.3,0,1,0-3.3-3.3A3.3,3.3,0,0,0,250,247.2ZM334.157,102H165.843A14.861,14.861,0,0,0,151,116.847V245.553A14.861,14.861,0,0,0,165.843,260.4h58.928a16.444,16.444,0,0,1-6.677,14.759l-5.96,4.2a3.287,3.287,0,0,0-1.032,1.188A9.9,9.9,0,0,0,213.7,300h72.6a9.9,9.9,0,0,0,2.6-19.45,3.279,3.279,0,0,0-1.033-1.19l-5.953-4.194a16.453,16.453,0,0,1-6.684-14.766h58.925A14.861,14.861,0,0,0,349,245.553V116.847A14.861,14.861,0,0,0,334.157,102ZM157.6,116.847a8.255,8.255,0,0,1,8.243-8.247H334.157a8.255,8.255,0,0,1,8.243,8.247V227.4H157.6V116.847ZM286.3,293.4H213.7a3.3,3.3,0,0,1,0-6.6h72.6A3.3,3.3,0,0,1,286.3,293.4Zm-8.673-13.2H222.373a23.126,23.126,0,0,0,9.009-19.8h37.239A23.121,23.121,0,0,0,277.627,280.2ZM342.4,245.553a8.255,8.255,0,0,1-8.243,8.247H165.843a8.255,8.255,0,0,1-8.243-8.247V234H342.4v11.553h0ZM217,118.5a49.484,49.484,0,0,0-28.1,90.224,3.336,3.336,0,0,0,.391.272,49.4,49.4,0,0,0,55.17.17,3.263,3.263,0,0,0,.53-0.361A49.485,49.485,0,0,0,217,118.5Zm-19.543,87.684,9.679-4.768a5.8,5.8,0,0,0,3.264-5.236V192.4a3.3,3.3,0,0,0-1.994-3.03c-5.006-2.155-8.259-6.273-9.949-12.589a3.293,3.293,0,0,0-2.211-2.3,3.278,3.278,0,0,1-2.346-3.125v-3.3a3.292,3.292,0,0,1,1.782-2.891,3.3,3.3,0,0,0,1.732-2.57,30.829,30.829,0,0,1,2.053-8.484c0.439-1.073.812-1.878,1.115-2.528,1.119-2.4,1.525-3.647,1.244-6.191a23.383,23.383,0,0,0,13.6,2.775q0.768-.059,1.571-0.059c12.355,0,18.387,4.475,19.565,14.513a3.3,3.3,0,0,0,1.736,2.538,3.3,3.3,0,0,1,1.8,2.9v3.3a3.278,3.278,0,0,1-2.346,3.125,3.293,3.293,0,0,0-2.211,2.3c-1.687,6.316-4.944,10.434-9.946,12.59a3.3,3.3,0,0,0-2,3.029v3.808a5.814,5.814,0,0,0,3.181,5.2l9.56,4.882A42.847,42.847,0,0,1,197.457,206.184Zm45.389-3.968c-0.209-.12-0.418-0.236-0.628-0.341L230.2,195.737V194.46c5.372-2.933,9.154-7.765,11.259-14.4a9.82,9.82,0,0,0,5.241-8.7v-3.3a9.832,9.832,0,0,0-3.8-7.751c-2.059-12.474-10.764-18.8-25.9-18.8-0.716,0-1.413.026-2.1,0.079a16.711,16.711,0,0,1-10.639-2.445,13.307,13.307,0,0,1-3.013-2.614,3.957,3.957,0,0,0-7.055,2.888c0.138,1.231.35,2.666,0.66,4.24,0.64,3.218.64,3.218-.254,5.142-0.337.726-.753,1.617-1.244,2.815a36.793,36.793,0,0,0-2.314,8.735,9.839,9.839,0,0,0-3.742,7.709v3.3a9.822,9.822,0,0,0,5.241,8.7c2.108,6.636,5.887,11.467,11.259,14.4V195.7l-12.434,6.128c-0.137.074-.271,0.157-0.406,0.237A42.9,42.9,0,1,1,242.846,202.216ZM325.9,115.2H283a3.3,3.3,0,0,0,0,6.6h42.9A3.3,3.3,0,1,0,325.9,115.2ZM283,141.6h13.2a3.3,3.3,0,1,0,0-6.6H283A3.3,3.3,0,0,0,283,141.6Zm0,19.8h26.4a3.3,3.3,0,1,0,0-6.6H283A3.3,3.3,0,1,0,283,161.4Zm0,19.8h13.2a3.3,3.3,0,0,0,0-6.6H283A3.3,3.3,0,0,0,283,181.2Zm13.2,33H283a3.3,3.3,0,0,0,0,6.6h13.2A3.3,3.3,0,1,0,296.2,214.2Zm29.7,0H309.4a3.3,3.3,0,1,0,0,6.6h16.5A3.3,3.3,0,0,0,325.9,214.2ZM283,201h26.4a3.3,3.3,0,1,0,0-6.6H283A3.3,3.3,0,1,0,283,201Z"/>
</svg>
