<svg id="icon" xmlns="http://www.w3.org/2000/svg" xmlns:xlink="http://www.w3.org/1999/xlink" width="500" height="500" viewBox="0 0 500 500">
  <metadata><?xpacket begin="﻿" id="W5M0MpCehiHzreSzNTczkc9d"?>
<x:xmpmeta xmlns:x="adobe:ns:meta/" x:xmptk="Adobe XMP Core 5.6-c138 79.159824, 2016/09/14-01:09:01        ">
   <rdf:RDF xmlns:rdf="http://www.w3.org/1999/02/22-rdf-syntax-ns#">
      <rdf:Description rdf:about=""/>
   </rdf:RDF>
</x:xmpmeta>
                                                                                                    
                                                                                                    
                                                                                                    
                                                                                                    
                                                                                                    
                                                                                                    
                                                                                                    
                                                                                                    
                                                                                                    
                                                                                                    
                                                                                                    
                                                                                                    
                                                                                                    
                                                                                                    
                                                                                                    
                                                                                                    
                                                                                                    
                                                                                                    
                                                                                                    
                                                                                                    
                           
<?xpacket end="w"?></metadata>
<defs>
    <style>
      .cls-1 {
        fill: #002121;
      }

      .cls-2 {
        font-size: 43px;
        filter: url(#filter);
        text-anchor: middle;
        font-family: Roboto;
        font-weight: 500;
      }

      .cls-2, .cls-3 {
        fill: #fff;
      }

      .cls-3 {
        fill-rule: evenodd;
        filter: url(#filter-2);
      }
    </style>
    <filter id="filter" x="71" y="335" width="378" height="134" filterUnits="userSpaceOnUse">
      <feOffset result="offset" dx="10" dy="17.321" in="SourceAlpha"/>
      <feGaussianBlur result="blur" stdDeviation="4.472"/>
      <feFlood result="flood" flood-opacity="0.2"/>
      <feComposite result="composite" operator="in" in2="blur"/>
      <feBlend result="blend" in="SourceGraphic"/>
    </filter>
    <filter id="filter-2" x="123" y="89" width="275" height="236" filterUnits="userSpaceOnUse">
      <feOffset result="offset" dx="10" dy="17.321" in="SourceAlpha"/>
      <feGaussianBlur result="blur" stdDeviation="4.472"/>
      <feFlood result="flood" flood-opacity="0.2"/>
      <feComposite result="composite" operator="in" in2="blur"/>
      <feBlend result="blend" in="SourceGraphic"/>
    </filter>
  </defs>
  <rect class="cls-1" y="-3" width="500" height="503"/>
  <text id="All_Types_Of_Products_Friendly" data-name="All Types Of  Products Friendly" class="cls-2" x="248.022" y="370.521">All Types Of <tspan x="248.022" dy="51.6">Products Friendly</tspan></text>
  <path class="cls-3" d="M344.537,91H155.463A23.5,23.5,0,0,0,132,114.475v22.919a4.7,4.7,0,0,0,4.7,4.7h3.761V271.772A16.242,16.242,0,0,0,156.681,288H343.318a16.242,16.242,0,0,0,16.219-16.228V142.1H363.3a4.7,4.7,0,0,0,4.7-4.7V114.475A23.5,23.5,0,0,0,344.537,91Zm5.6,180.772a6.826,6.826,0,0,1-6.816,6.82H156.681a6.826,6.826,0,0,1-6.816-6.82V142.1h200.27V271.772h0ZM358.6,132.69H141.4V114.475a14.081,14.081,0,0,1,14.061-14.068H344.537A14.081,14.081,0,0,1,358.6,114.475V132.69h0Zm-82.314,21.724H223.716a20.269,20.269,0,0,0,0,40.538h52.567A20.269,20.269,0,0,0,276.284,154.414Zm0,31.131H223.716a10.862,10.862,0,0,1,0-21.724h52.567A10.862,10.862,0,0,1,276.284,185.545Zm24.489,23.432H199.227a4.7,4.7,0,0,0-4.7,4.7v47.037a4.7,4.7,0,0,0,4.7,4.7H300.773a4.7,4.7,0,0,0,4.7-4.7V213.681A4.7,4.7,0,0,0,300.773,208.977Zm-4.7,47.037H203.928v-37.63h92.144v37.63h0Zm-15.984-23.989h-2.821a4.7,4.7,0,0,0,0,9.407h2.821A4.7,4.7,0,0,0,280.088,232.025Zm-21.156,0h-39.02a4.7,4.7,0,0,0,0,9.407h39.02A4.7,4.7,0,0,0,258.932,232.025Z"/>
</svg>
