<svg id="icon" xmlns="http://www.w3.org/2000/svg" xmlns:xlink="http://www.w3.org/1999/xlink" width="500" height="500" viewBox="0 0 500 500">
  <metadata><?xpacket begin="﻿" id="W5M0MpCehiHzreSzNTczkc9d"?>
<x:xmpmeta xmlns:x="adobe:ns:meta/" x:xmptk="Adobe XMP Core 5.6-c138 79.159824, 2016/09/14-01:09:01        ">
   <rdf:RDF xmlns:rdf="http://www.w3.org/1999/02/22-rdf-syntax-ns#">
      <rdf:Description rdf:about=""/>
   </rdf:RDF>
</x:xmpmeta>
                                                                                                    
                                                                                                    
                                                                                                    
                                                                                                    
                                                                                                    
                                                                                                    
                                                                                                    
                                                                                                    
                                                                                                    
                                                                                                    
                                                                                                    
                                                                                                    
                                                                                                    
                                                                                                    
                                                                                                    
                                                                                                    
                                                                                                    
                                                                                                    
                                                                                                    
                                                                                                    
                           
<?xpacket end="w"?></metadata>
<defs>
    <style>
      .cls-1 {
        fill: #002121;
      }

      .cls-2 {
        font-size: 43px;
        filter: url(#filter);
        text-anchor: middle;
        font-family: Roboto;
        font-weight: 500;
      }

      .cls-2, .cls-3 {
        fill: #fff;
      }

      .cls-3 {
        fill-rule: evenodd;
      }
    </style>
    <filter id="filter" x="86" y="335" width="349" height="125" filterUnits="userSpaceOnUse">
      <feOffset result="offset" dx="10" dy="17.321" in="SourceAlpha"/>
      <feGaussianBlur result="blur" stdDeviation="4.472"/>
      <feFlood result="flood" flood-opacity="0.2"/>
      <feComposite result="composite" operator="in" in2="blur"/>
      <feBlend result="blend" in="SourceGraphic"/>
    </filter>
  </defs>
  <rect class="cls-1" y="-3" width="500" height="503"/>
  <text id="Log-In_Via_Social_Accounts" data-name="Log-In Via Social Accounts" class="cls-2" x="250.022" y="370.521">Log-In Via<tspan x="250.022" dy="51.6">Social Accounts</tspan></text>
  <path id="Forma_1" data-name="Forma 1" class="cls-3" d="M350.532,186H262.463A5.465,5.465,0,0,0,257,191.464v88.07A5.467,5.467,0,0,0,262.463,285h47.411V246.663h-12.9V231.718h12.9V220.7c0-12.786,7.809-19.751,19.217-19.751a106.528,106.528,0,0,1,11.527.588V214.9l-7.912,0c-6.2,0-7.4,2.949-7.4,7.274v9.538h14.8l-1.934,14.94H325.306V285h25.226a5.47,5.47,0,0,0,5.47-5.462V191.461A5.469,5.469,0,0,0,350.532,186Z"/>
  <path id="Forma_1-2" data-name="Forma 1" class="cls-3" d="M144,111v99h99V111H144Zm35.179,74.562a25.062,25.062,0,0,1,0-50.124,23.213,23.213,0,0,1,16.827,6.8l-6.8,6.444a13.8,13.8,0,0,0-10.025-3.938,15.757,15.757,0,0,0,0,31.506c10.025,0,13.6-7.16,14.321-10.741H179.179V156.92h23.629a16.005,16.005,0,0,1,.359,4.3C203.167,175.537,193.5,185.562,179.179,185.562Zm53.7-21.482h-7.16v7.161h-7.161V164.08H211.4v-7.16h7.16v-7.161h7.161v7.161h7.16v7.16Z"/>
</svg>
