<svg id="icon" xmlns="http://www.w3.org/2000/svg" xmlns:xlink="http://www.w3.org/1999/xlink" width="500" height="500" viewBox="0 0 500 500">
  <metadata><?xpacket begin="﻿" id="W5M0MpCehiHzreSzNTczkc9d"?>
<x:xmpmeta xmlns:x="adobe:ns:meta/" x:xmptk="Adobe XMP Core 5.6-c138 79.159824, 2016/09/14-01:09:01        ">
   <rdf:RDF xmlns:rdf="http://www.w3.org/1999/02/22-rdf-syntax-ns#">
      <rdf:Description rdf:about=""/>
   </rdf:RDF>
</x:xmpmeta>
                                                                                                    
                                                                                                    
                                                                                                    
                                                                                                    
                                                                                                    
                                                                                                    
                                                                                                    
                                                                                                    
                                                                                                    
                                                                                                    
                                                                                                    
                                                                                                    
                                                                                                    
                                                                                                    
                                                                                                    
                                                                                                    
                                                                                                    
                                                                                                    
                                                                                                    
                                                                                                    
                           
<?xpacket end="w"?></metadata>
<defs>
    <style>
      .cls-1 {
        fill: #002121;
      }

      .cls-2 {
        font-size: 43px;
        filter: url(#filter);
        text-anchor: middle;
        font-family: Roboto;
        font-weight: 500;
      }

      .cls-2, .cls-3 {
        fill: #fff;
      }

      .cls-3 {
        fill-rule: evenodd;
        filter: url(#filter-2);
      }
    </style>
    <filter id="filter" x="136" y="389" width="249" height="70" filterUnits="userSpaceOnUse">
      <feOffset result="offset" dx="10" dy="17.321" in="SourceAlpha"/>
      <feGaussianBlur result="blur" stdDeviation="4.472"/>
      <feFlood result="flood" flood-opacity="0.2"/>
      <feComposite result="composite" operator="in" in2="blur"/>
      <feBlend result="blend" in="SourceGraphic"/>
    </filter>
    <filter id="filter-2" x="107" y="116" width="308" height="233" filterUnits="userSpaceOnUse">
      <feOffset result="offset" dx="10" dy="17.321" in="SourceAlpha"/>
      <feGaussianBlur result="blur" stdDeviation="4.472"/>
      <feFlood result="flood" flood-opacity="0.2"/>
      <feComposite result="composite" operator="in" in2="blur"/>
      <feBlend result="blend" in="SourceGraphic"/>
    </filter>
  </defs>
  <rect class="cls-1" y="-3" width="500" height="503"/>
  <text id="Restaurant" class="cls-2" x="249.021" y="421.522">Restaurant</text>
  <path id="Forma_1" data-name="Forma 1" class="cls-3" d="M261.163,278.791a62.53,62.53,0,1,0-62.269-62.527A62.459,62.459,0,0,0,261.163,278.791Zm0,16.783a79.308,79.308,0,1,0-78.978-79.31A79.145,79.145,0,0,0,261.163,295.574Zm0-146.461c36.872,0,66.868,30.131,66.868,67.161A66.873,66.873,0,1,1,261.163,149.113Zm122.855,153.84-4.608-178a6.928,6.928,0,0,0-6.911-6.941,6.755,6.755,0,0,0-2.853.639v-0.065s-0.18.115-.432,0.291a7.066,7.066,0,0,0-1.769,1.37c-5.053,4.168-21.19,21.161-22.531,44.13-2.051,35.037,14.9,49.226,20.668,62.222l-4.608,76.35c0,3.832,7.709,6.941,11.52,6.941S384.018,306.785,384.018,302.953ZM128.057,194.515l11.929,5.983a20.093,20.093,0,0,0,4.423,1.555L139.8,306.175c0,3.213,7.706,5.821,11.52,5.821s11.52-2.6,11.52-5.821L158.233,201.52a20.558,20.558,0,0,0,4.554-1.979l8.837-5.405c6.377-3.906,11.183-12.5,11.183-20V127.484a6.912,6.912,0,1,0-13.824,0v42.024h-3.838V127.484a6.912,6.912,0,1,0-13.824,0v42.024h-3.852V127.484a6.912,6.912,0,1,0-13.823,0v42.024h-3.83V128.984a6.912,6.912,0,1,0-13.823,0v45.929C115.993,182.631,121.181,191.063,128.057,194.515Z"/>
</svg>
