<svg id="icon" xmlns="http://www.w3.org/2000/svg" xmlns:xlink="http://www.w3.org/1999/xlink" width="500" height="500" viewBox="0 0 500 500">
  <metadata><?xpacket begin="﻿" id="W5M0MpCehiHzreSzNTczkc9d"?>
<x:xmpmeta xmlns:x="adobe:ns:meta/" x:xmptk="Adobe XMP Core 5.6-c138 79.159824, 2016/09/14-01:09:01        ">
   <rdf:RDF xmlns:rdf="http://www.w3.org/1999/02/22-rdf-syntax-ns#">
      <rdf:Description rdf:about=""/>
   </rdf:RDF>
</x:xmpmeta>
                                                                                                    
                                                                                                    
                                                                                                    
                                                                                                    
                                                                                                    
                                                                                                    
                                                                                                    
                                                                                                    
                                                                                                    
                                                                                                    
                                                                                                    
                                                                                                    
                                                                                                    
                                                                                                    
                                                                                                    
                                                                                                    
                                                                                                    
                                                                                                    
                                                                                                    
                                                                                                    
                           
<?xpacket end="w"?></metadata>
<defs>
    <style>
      .cls-1 {
        fill: #002121;
      }

      .cls-2 {
        font-size: 43px;
        filter: url(#filter);
        text-anchor: middle;
        font-family: Roboto;
        font-weight: 500;
      }

      .cls-2, .cls-3 {
        fill: #fff;
      }

      .cls-3 {
        fill-rule: evenodd;
        filter: url(#filter-2);
      }
    </style>
    <filter id="filter" x="166" y="386" width="188" height="73" filterUnits="userSpaceOnUse">
      <feOffset result="offset" dx="10" dy="17.321" in="SourceAlpha"/>
      <feGaussianBlur result="blur" stdDeviation="4.472"/>
      <feFlood result="flood" flood-opacity="0.2"/>
      <feComposite result="composite" operator="in" in2="blur"/>
      <feBlend result="blend" in="SourceGraphic"/>
    </filter>
    <filter id="filter-2" x="153" y="77" width="215" height="282" filterUnits="userSpaceOnUse">
      <feOffset result="offset" dx="10" dy="17.321" in="SourceAlpha"/>
      <feGaussianBlur result="blur" stdDeviation="4.472"/>
      <feFlood result="flood" flood-opacity="0.2"/>
      <feComposite result="composite" operator="in" in2="blur"/>
      <feBlend result="blend" in="SourceGraphic"/>
    </filter>
  </defs>
  <rect class="cls-1" y="-3" width="500" height="503"/>
  <text id="Fashion" class="cls-2" x="249.021" y="421.522">Fashion</text>
  <path id="Forma_1" data-name="Forma 1" class="cls-3" d="M232.9,205.458H206.643V87.569h16.222a27.481,27.481,0,0,0,54.271,0h16.22v65.616a4.293,4.293,0,0,0,8.585,0v-11.55l9.239,4.61a4.3,4.3,0,0,0,5.427-1.362l20.6-29.135a4.281,4.281,0,0,0-.759-5.763l-36.04-29.977A4.279,4.279,0,0,0,297.649,79h-95.3a4.276,4.276,0,0,0-2.767,1.011l-36.036,29.974a4.279,4.279,0,0,0-.759,5.763l20.6,29.135a4.3,4.3,0,0,0,5.428,1.362l9.237-4.61v68.107a4.289,4.289,0,0,0,4.293,4.285H232.9A4.285,4.285,0,1,0,232.9,205.458Zm78.821-68.524-9.779-4.881V92.435l25.971,21.6ZM250,102.135a18.909,18.909,0,0,1-18.389-14.566H268.39A18.909,18.909,0,0,1,250,102.135Zm-61.72,34.8-16.192-22.9,25.97-21.6v39.618Zm144.726,25.513H246.7a4.289,4.289,0,0,0-4.293,4.285V317.716A4.288,4.288,0,0,0,246.7,322H279.75a4.289,4.289,0,0,0,4.286-4.047l5.814-104.406,5.814,104.406A4.289,4.289,0,0,0,299.95,322h33.055a4.288,4.288,0,0,0,4.292-4.284V166.732A4.286,4.286,0,0,0,333.006,162.447Zm-4.293,18.159H315.177v-9.589h13.536v9.589Zm-55.6,0v-9.589h33.481v9.589H273.11Zm-8.585-9.589v9.589H250.989v-9.589h13.536ZM304.012,313.43l-5.835-104.777a4.289,4.289,0,0,0-4.286-4.047h-8.08a4.289,4.289,0,0,0-4.286,4.047L275.691,313.43h-24.7V189.176h77.725V313.43h-24.7Z"/>
</svg>
