<svg id="icon" xmlns="http://www.w3.org/2000/svg" xmlns:xlink="http://www.w3.org/1999/xlink" width="500" height="500" viewBox="0 0 500 500">
  <metadata><?xpacket begin="﻿" id="W5M0MpCehiHzreSzNTczkc9d"?>
<x:xmpmeta xmlns:x="adobe:ns:meta/" x:xmptk="Adobe XMP Core 5.6-c138 79.159824, 2016/09/14-01:09:01        ">
   <rdf:RDF xmlns:rdf="http://www.w3.org/1999/02/22-rdf-syntax-ns#">
      <rdf:Description rdf:about=""/>
   </rdf:RDF>
</x:xmpmeta>
                                                                                                    
                                                                                                    
                                                                                                    
                                                                                                    
                                                                                                    
                                                                                                    
                                                                                                    
                                                                                                    
                                                                                                    
                                                                                                    
                                                                                                    
                                                                                                    
                                                                                                    
                                                                                                    
                                                                                                    
                                                                                                    
                                                                                                    
                                                                                                    
                                                                                                    
                                                                                                    
                           
<?xpacket end="w"?></metadata>
<defs>
    <style>
      .cls-1 {
        fill: #002121;
      }

      .cls-2, .cls-3 {
        fill: #fff;
      }

      .cls-2 {
        fill-rule: evenodd;
        filter: url(#filter);
      }

      .cls-3 {
        font-size: 48px;
        filter: url(#filter-2);
        text-anchor: middle;
        font-family: Roboto;
        font-weight: 500;
      }
    </style>
    <filter id="filter" x="129" y="88" width="263" height="232" filterUnits="userSpaceOnUse">
      <feOffset result="offset" dx="10" dy="17.321" in="SourceAlpha"/>
      <feGaussianBlur result="blur" stdDeviation="4.472"/>
      <feFlood result="flood" flood-opacity="0.2"/>
      <feComposite result="composite" operator="in" in2="blur"/>
      <feBlend result="blend" in="SourceGraphic"/>
    </filter>
    <filter id="filter-2" x="43" y="341" width="435" height="134" filterUnits="userSpaceOnUse">
      <feOffset result="offset" dx="10" dy="17.321" in="SourceAlpha"/>
      <feGaussianBlur result="blur" stdDeviation="4.472"/>
      <feFlood result="flood" flood-opacity="0.2"/>
      <feComposite result="composite" operator="in" in2="blur"/>
      <feBlend result="blend" in="SourceGraphic"/>
    </filter>
  </defs>
  <rect class="cls-1" y="-3" width="500" height="503"/>
  <path class="cls-2" d="M342.943,141.532H241.363a19.12,19.12,0,0,0,0,38.239h101.58A19.12,19.12,0,0,0,342.943,141.532Zm0,29.285H241.363a10.166,10.166,0,0,1,0-20.331h101.58A10.166,10.166,0,0,1,342.943,170.817Zm0,22.33H157.057a19.119,19.119,0,0,0,0,38.238H342.943A19.119,19.119,0,0,0,342.943,193.147Zm0,29.285H157.057a10.166,10.166,0,0,1,0-20.332H342.943A10.166,10.166,0,0,1,342.943,222.432Zm-101.58-94.187h101.58a19.119,19.119,0,0,0,0-38.238H241.363A19.119,19.119,0,0,0,241.363,128.245Zm0-29.285h101.58a10.165,10.165,0,0,1,0,20.331H241.363A10.165,10.165,0,0,1,241.363,98.96Zm101.58,145.8H157.057a19.119,19.119,0,0,0,0,38.238H342.943A19.119,19.119,0,0,0,342.943,244.762Zm0,29.284H157.057a10.166,10.166,0,0,1,0-20.331H342.943A10.166,10.166,0,0,1,342.943,274.046ZM242.175,111.97h34.081a4.477,4.477,0,0,0,0-8.954H242.175A4.477,4.477,0,0,0,242.175,111.97Zm48.676,0h6.2a4.477,4.477,0,0,0,0-8.954h-6.2A4.477,4.477,0,0,0,290.851,111.97ZM179.606,156.859a4.469,4.469,0,0,0,4.462-4.477V94.477a4.463,4.463,0,1,0-8.925,0v57.905A4.47,4.47,0,0,0,179.606,156.859ZM176.45,178.4a4.454,4.454,0,0,0,6.312,0l31.279-31.383a4.47,4.47,0,0,0-6.311-6.332L179.606,168.9l-28.125-28.217a4.47,4.47,0,0,0-6.31,6.332Z"/>
  <text id="Product_Additional_Attributes" data-name="Product Additional Attributes" class="cls-3" x="250.022" y="379.522">Product Additional<tspan x="250.022" dy="57.6">Attributes</tspan></text>
</svg>
