<svg id="icon" xmlns="http://www.w3.org/2000/svg" xmlns:xlink="http://www.w3.org/1999/xlink" width="500" height="500" viewBox="0 0 500 500">
  <metadata><?xpacket begin="﻿" id="W5M0MpCehiHzreSzNTczkc9d"?>
<x:xmpmeta xmlns:x="adobe:ns:meta/" x:xmptk="Adobe XMP Core 5.6-c138 79.159824, 2016/09/14-01:09:01        ">
   <rdf:RDF xmlns:rdf="http://www.w3.org/1999/02/22-rdf-syntax-ns#">
      <rdf:Description rdf:about=""/>
   </rdf:RDF>
</x:xmpmeta>
                                                                                                    
                                                                                                    
                                                                                                    
                                                                                                    
                                                                                                    
                                                                                                    
                                                                                                    
                                                                                                    
                                                                                                    
                                                                                                    
                                                                                                    
                                                                                                    
                                                                                                    
                                                                                                    
                                                                                                    
                                                                                                    
                                                                                                    
                                                                                                    
                                                                                                    
                                                                                                    
                           
<?xpacket end="w"?></metadata>
<defs>
    <style>
      .cls-1 {
        fill: #002121;
      }

      .cls-2 {
        font-size: 48px;
        filter: url(#filter);
        text-anchor: middle;
        font-family: Roboto;
        font-weight: 500;
      }

      .cls-2, .cls-3 {
        fill: #fff;
      }

      .cls-3 {
        fill-rule: evenodd;
        filter: url(#filter-2);
      }
    </style>
    <filter id="filter" x="101" y="343" width="319" height="142" filterUnits="userSpaceOnUse">
      <feOffset result="offset" dx="10" dy="17.321" in="SourceAlpha"/>
      <feGaussianBlur result="blur" stdDeviation="4.472"/>
      <feFlood result="flood" flood-opacity="0.2"/>
      <feComposite result="composite" operator="in" in2="blur"/>
      <feBlend result="blend" in="SourceGraphic"/>
    </filter>
    <filter id="filter-2" x="99" y="91" width="323" height="235" filterUnits="userSpaceOnUse">
      <feOffset result="offset" dx="10" dy="17.321" in="SourceAlpha"/>
      <feGaussianBlur result="blur" stdDeviation="4.472"/>
      <feFlood result="flood" flood-opacity="0.2"/>
      <feComposite result="composite" operator="in" in2="blur"/>
      <feBlend result="blend" in="SourceGraphic"/>
    </filter>
  </defs>
  <rect class="cls-1" y="-3" width="500" height="503"/>
  <text id="Inventory_Management" data-name="Inventory Management" class="cls-2" x="249.021" y="379.522">Inventory<tspan x="249.021" dy="57.6">Management</tspan></text>
  <path id="Forma_1" data-name="Forma 1" class="cls-3" d="M360.938,110.818H139.063a4.447,4.447,0,0,0-4.438,4.455V248.909a4.446,4.446,0,0,0,4.438,4.454H360.938a4.446,4.446,0,0,0,4.437-4.454V115.273A4.447,4.447,0,0,0,360.938,110.818ZM356.5,244.454H325.438V173.182a4.438,4.438,0,1,0-8.875,0v71.272H289.938V222.182a4.438,4.438,0,1,0-8.875,0v22.272H254.438V191a4.438,4.438,0,1,0-8.875,0v53.454H218.938V226.636a4.438,4.438,0,1,0-8.875,0v17.818H183.438a4.438,4.438,0,1,0-8.875,0H143.5V119.727h213V244.454Zm31.063,17.818h-4.438v-148.8A20.484,20.484,0,0,0,362.675,93H137.316a20.48,20.48,0,0,0-20.441,20.472v148.8h-4.437A4.447,4.447,0,0,0,108,266.727v4.455A17.8,17.8,0,0,0,125.75,289h248.5A17.8,17.8,0,0,0,392,271.182v-4.455A4.447,4.447,0,0,0,387.563,262.272ZM125.75,113.472a11.578,11.578,0,0,1,11.566-11.563H362.675a11.582,11.582,0,0,1,11.575,11.563v148.8H125.75v-148.8Zm248.5,166.619H125.75a8.9,8.9,0,0,1-8.875-8.909H232.25a4.446,4.446,0,0,0,4.438,4.454h26.625a4.446,4.446,0,0,0,4.437-4.454H383.125A8.9,8.9,0,0,1,374.25,280.091Zm-195.25-49a13.354,13.354,0,0,0,13.313-13.364,13.606,13.606,0,0,0-.1-1.649l13.06-6.554a13.329,13.329,0,0,0,21.244-15.373,0,0,0,0,1,0,0l17.75-17.818s0,0,0,0a13.234,13.234,0,0,0,12.255-.413l16.616,14.6a13.311,13.311,0,1,0,23.332-2.621l20.741-28.628a13.2,13.2,0,0,0,3.792.556,13.361,13.361,0,1,0-10.967-5.8l-20.741,28.628a13.221,13.221,0,0,0-10.311,1.162l-16.616-14.594a13.311,13.311,0,1,0-24.377.816,0,0,0,0,0,0,0l-17.75,17.818a0,0,0,0,0,0,0,13.183,13.183,0,0,0-5.736-1.307,13.353,13.353,0,0,0-13.312,13.364,13.594,13.594,0,0,0,.1,1.649l-13.06,6.555A13.335,13.335,0,1,0,179,231.091ZM321,142a4.455,4.455,0,1,1-4.437,4.455A4.452,4.452,0,0,1,321,142Zm-35.5,49a4.455,4.455,0,1,1-4.437,4.454A4.451,4.451,0,0,1,285.5,191ZM250,159.818a4.455,4.455,0,1,1-4.437,4.455A4.452,4.452,0,0,1,250,159.818Zm-35.5,35.636a4.455,4.455,0,1,1-4.437,4.455A4.452,4.452,0,0,1,214.5,195.454ZM179,213.273a4.455,4.455,0,1,1-4.437,4.454A4.451,4.451,0,0,1,179,213.273Z"/>
</svg>
