<svg id="icon" xmlns="http://www.w3.org/2000/svg" xmlns:xlink="http://www.w3.org/1999/xlink" width="500" height="500" viewBox="0 0 500 500">
  <metadata><?xpacket begin="﻿" id="W5M0MpCehiHzreSzNTczkc9d"?>
<x:xmpmeta xmlns:x="adobe:ns:meta/" x:xmptk="Adobe XMP Core 5.6-c138 79.159824, 2016/09/14-01:09:01        ">
   <rdf:RDF xmlns:rdf="http://www.w3.org/1999/02/22-rdf-syntax-ns#">
      <rdf:Description rdf:about=""/>
   </rdf:RDF>
</x:xmpmeta>
                                                                                                    
                                                                                                    
                                                                                                    
                                                                                                    
                                                                                                    
                                                                                                    
                                                                                                    
                                                                                                    
                                                                                                    
                                                                                                    
                                                                                                    
                                                                                                    
                                                                                                    
                                                                                                    
                                                                                                    
                                                                                                    
                                                                                                    
                                                                                                    
                                                                                                    
                                                                                                    
                           
<?xpacket end="w"?></metadata>
<defs>
    <style>
      .cls-1 {
        fill: #002121;
      }

      .cls-2 {
        font-size: 43px;
        filter: url(#filter);
        text-anchor: middle;
        font-family: Roboto;
        font-weight: 500;
      }

      .cls-2, .cls-3 {
        fill: #fff;
      }

      .cls-3 {
        fill-rule: evenodd;
        filter: url(#filter-2);
      }
    </style>
    <filter id="filter" x="49" y="343" width="424" height="134" filterUnits="userSpaceOnUse">
      <feOffset result="offset" dx="10" dy="17.321" in="SourceAlpha"/>
      <feGaussianBlur result="blur" stdDeviation="4.472"/>
      <feFlood result="flood" flood-opacity="0.2"/>
      <feComposite result="composite" operator="in" in2="blur"/>
      <feBlend result="blend" in="SourceGraphic"/>
    </filter>
    <filter id="filter-2" x="142" y="72" width="238" height="238" filterUnits="userSpaceOnUse">
      <feOffset result="offset" dx="10" dy="17.321" in="SourceAlpha"/>
      <feGaussianBlur result="blur" stdDeviation="4.472"/>
      <feFlood result="flood" flood-opacity="0.2"/>
      <feComposite result="composite" operator="in" in2="blur"/>
      <feBlend result="blend" in="SourceGraphic"/>
    </filter>
  </defs>
  <rect class="cls-1" y="-3" width="500" height="503"/>
  <text id="Interactive_Theme_Easy_Customization" data-name="Interactive Theme &amp;  Easy Customization" class="cls-2" x="253.022" y="378.522">Interactive Theme &amp; <tspan x="253.022" dy="51.6">Easy Customization</tspan></text>
  <path class="cls-3" d="M335.888,74a14.063,14.063,0,0,0-13,8.649L310.2,112.958a20.6,20.6,0,0,0-14.1-5.8H171.729A20.759,20.759,0,0,0,151,127.884V252.269A20.759,20.759,0,0,0,171.729,273H296.1a20.759,20.759,0,0,0,20.729-20.731v-90.76l31.84-67.176A14.394,14.394,0,0,0,350,88.1,14.126,14.126,0,0,0,335.888,74ZM308.542,252.269A12.454,12.454,0,0,1,296.1,264.708H171.729a12.453,12.453,0,0,1-12.437-12.439V127.884a12.453,12.453,0,0,1,12.437-12.439H296.1a12.344,12.344,0,0,1,10.522,6.054l-14.668,35.06V136.176a4.147,4.147,0,0,0-4.146-4.146H180.021a4.147,4.147,0,0,0-4.146,4.146v33.169a4.148,4.148,0,0,0,4.146,4.147H284.869l-3.474,8.292H246.354a4.148,4.148,0,0,0-4.146,4.146v49.754c0,0.108.05,0.2,0.058,0.307a25.962,25.962,0,0,1-5.647,4.1,4.147,4.147,0,0,0-1.492,6.824c6,6,14.286,8.292,22.387,8.292,10.357,0,20.4-3.748,24.925-8.292,6.517-6.518,11.293-19.437,7.686-29.065l18.416-38.841v73.263h0Zm-52.354-23.757c1.144-3.765,2.231-7.331,5.531-10.631,5.862-5.863,13.15-5.863,19.012,0,5.249,5.249,1.244,17.77-4.146,23.16-4.494,4.486-20.472,8.815-31.193,3.21a53.714,53.714,0,0,0,4.925-4.4C253.783,236.373,255.011,232.376,256.188,228.512Zm-5.688-8.624v-29.8h27.429l-6.36,15.192a21.585,21.585,0,0,0-15.721,6.758A25.734,25.734,0,0,0,250.5,219.888Zm29.253-12.671,11.161-26.677,6.268,3.077L284.529,210.3A23.654,23.654,0,0,0,279.753,207.217Zm3.914-66.9V165.2h-99.5V140.322h99.5Zm57.5-49.521-40.446,85.328-6.609-3.242,21.019-50.235,15.4-36.8a5.79,5.79,0,0,1,5.365-3.557,5.878,5.878,0,0,1,5.8,6.087A5.75,5.75,0,0,1,341.169,90.8Zm-119.69,90.983H180.021a4.148,4.148,0,0,0-4.146,4.147v58.046a4.147,4.147,0,0,0,4.146,4.146h41.458a4.147,4.147,0,0,0,4.146-4.146V185.931A4.148,4.148,0,0,0,221.479,181.784Zm-4.146,58.047H184.167V190.076h33.166v49.755h0Z"/>
</svg>
