<svg id="icon" xmlns="http://www.w3.org/2000/svg" xmlns:xlink="http://www.w3.org/1999/xlink" width="500" height="500" viewBox="0 0 500 500">
  <metadata><?xpacket begin="﻿" id="W5M0MpCehiHzreSzNTczkc9d"?>
<x:xmpmeta xmlns:x="adobe:ns:meta/" x:xmptk="Adobe XMP Core 5.6-c138 79.159824, 2016/09/14-01:09:01        ">
   <rdf:RDF xmlns:rdf="http://www.w3.org/1999/02/22-rdf-syntax-ns#">
      <rdf:Description rdf:about=""/>
   </rdf:RDF>
</x:xmpmeta>
                                                                                                    
                                                                                                    
                                                                                                    
                                                                                                    
                                                                                                    
                                                                                                    
                                                                                                    
                                                                                                    
                                                                                                    
                                                                                                    
                                                                                                    
                                                                                                    
                                                                                                    
                                                                                                    
                                                                                                    
                                                                                                    
                                                                                                    
                                                                                                    
                                                                                                    
                                                                                                    
                           
<?xpacket end="w"?></metadata>
<defs>
    <style>
      .cls-1 {
        fill: #002121;
      }

      .cls-2 {
        font-size: 43px;
        filter: url(#filter);
        text-anchor: middle;
        font-family: Roboto;
        font-weight: 500;
      }

      .cls-2, .cls-3 {
        fill: #fff;
      }

      .cls-3 {
        fill-rule: evenodd;
        filter: url(#filter-2);
      }
    </style>
    <filter id="filter" x="108" y="344" width="302" height="125" filterUnits="userSpaceOnUse">
      <feOffset result="offset" dx="10" dy="17.321" in="SourceAlpha"/>
      <feGaussianBlur result="blur" stdDeviation="4.472"/>
      <feFlood result="flood" flood-opacity="0.2"/>
      <feComposite result="composite" operator="in" in2="blur"/>
      <feBlend result="blend" in="SourceGraphic"/>
    </filter>
    <filter id="filter-2" x="122" y="90" width="277" height="237" filterUnits="userSpaceOnUse">
      <feOffset result="offset" dx="10" dy="17.321" in="SourceAlpha"/>
      <feGaussianBlur result="blur" stdDeviation="4.472"/>
      <feFlood result="flood" flood-opacity="0.2"/>
      <feComposite result="composite" operator="in" in2="blur"/>
      <feBlend result="blend" in="SourceGraphic"/>
    </filter>
  </defs>
  <rect class="cls-1" y="-3" width="500" height="503"/>
  <text id="Fully_Customizable" data-name="Fully Customizable" class="cls-2" x="248.022" y="379.522">Fully<tspan x="248.022" dy="51.6">Customizable</tspan></text>
  <path class="cls-3" d="M357.324,92H142.676A11.682,11.682,0,0,0,131,103.661V250.549a11.682,11.682,0,0,0,11.676,11.661h79.177l-2.91,20.346h-4.717a3.722,3.722,0,1,0,0,7.444h71.548a3.722,3.722,0,1,0,0-7.444h-4.717l-2.91-20.346h79.177A11.682,11.682,0,0,0,369,250.549V103.661A11.682,11.682,0,0,0,357.324,92ZM226.472,282.556l2.91-20.346h41.235l2.911,20.346H226.472Zm135.075-32.007a4.226,4.226,0,0,1-4.223,4.218H142.676a4.226,4.226,0,0,1-4.223-4.218v-8.188H361.547v8.188h0Zm0-15.632H138.453V103.661a4.226,4.226,0,0,1,4.223-4.218H357.324a4.226,4.226,0,0,1,4.223,4.218V234.917h0ZM349.374,107.879H150.626A3.724,3.724,0,0,0,146.9,111.6V222.759a3.724,3.724,0,0,0,3.726,3.722H349.373a3.724,3.724,0,0,0,3.727-3.722V111.6A3.724,3.724,0,0,0,349.374,107.879ZM230.316,219.038a16.149,16.149,0,0,1,31.419,0H230.316Zm39.014,0a23.605,23.605,0,0,0-46.609,0H214.2a32.046,32.046,0,0,1,63.649,0h-8.52Zm16.015,0a39.5,39.5,0,0,0-78.641,0h-8.482a47.953,47.953,0,0,1,95.607,0h-8.484Zm60.3,0H305.4v-4.219a3.724,3.724,0,0,0-3.727-3.722h-1.49a54.979,54.979,0,0,0-7.621-18.325l1.068-1.067a3.717,3.717,0,0,0,0-5.263l-11.243-11.229a3.729,3.729,0,0,0-5.269,0l-1.068,1.067a55.126,55.126,0,0,0-18.349-7.611V167.18a3.724,3.724,0,0,0-3.727-3.722h-15.9a3.724,3.724,0,0,0-3.726,3.722v1.489A55.109,55.109,0,0,0,216,176.28l-1.068-1.067a3.73,3.73,0,0,0-5.27,0L198.42,186.442a3.717,3.717,0,0,0,0,5.263l1.068,1.067a55,55,0,0,0-7.621,18.325h-1.491a3.724,3.724,0,0,0-3.726,3.722v4.219h-32.3V115.323h191.3V219.038h0Zm-24.1-67.49h-0.607a19.477,19.477,0,0,0-3.012-7.25l0.433-.432a3.724,3.724,0,0,0-5.27-5.263l-0.433.432a19.545,19.545,0,0,0-7.259-3.008V135.42a3.727,3.727,0,0,0-7.454,0v0.607a19.522,19.522,0,0,0-7.259,3.008l-0.433-.432a3.724,3.724,0,0,0-5.27,5.263l0.433,0.432a19.494,19.494,0,0,0-3.012,7.25H281.8a3.722,3.722,0,1,0,0,7.444h0.607a19.482,19.482,0,0,0,3.012,7.251l-0.433.432a3.724,3.724,0,0,0,5.27,5.263l0.432-.432a19.559,19.559,0,0,0,7.26,3.008v0.607a3.727,3.727,0,0,0,7.453,0v-0.607a19.533,19.533,0,0,0,7.26-3.008l0.432,0.432a3.724,3.724,0,0,0,5.27-5.263l-0.433-.432a19.5,19.5,0,0,0,3.012-7.251h0.607A3.722,3.722,0,1,0,321.549,151.548Zm-19.875,15.88a12.158,12.158,0,1,1,12.174-12.158A12.179,12.179,0,0,1,301.674,167.428Zm0-15.9a3.742,3.742,0,1,0,3.747,3.742A3.759,3.759,0,0,0,301.674,151.528Zm36.04,46.173-0.744-.429a11.645,11.645,0,0,0,0-4.606l0.744-.429a3.723,3.723,0,1,0-3.727-6.446l-0.751.433a11.685,11.685,0,0,0-3.986-2.3v-0.86a3.727,3.727,0,0,0-7.453,0v0.86a11.675,11.675,0,0,0-3.986,2.3l-0.751-.433a3.723,3.723,0,1,0-3.727,6.446l0.744,0.429a11.67,11.67,0,0,0,0,4.606l-0.743.429a3.723,3.723,0,1,0,3.726,6.446l0.751-.433a11.685,11.685,0,0,0,3.986,2.305v0.861a3.727,3.727,0,0,0,7.454,0v-0.861a11.685,11.685,0,0,0,3.986-2.305l0.751,0.433A3.723,3.723,0,1,0,337.714,197.7Zm-12.19,1.487a4.219,4.219,0,1,1,4.224-4.218A4.226,4.226,0,0,1,325.524,199.188ZM178.451,127.729H170.5a3.722,3.722,0,1,0,0,7.444h7.95A3.722,3.722,0,1,0,178.451,127.729Zm59.624,0H194.351a3.722,3.722,0,1,0,0,7.444h43.724A3.722,3.722,0,1,0,238.075,127.729Zm-59.624,15.88H170.5a3.722,3.722,0,1,0,0,7.444h7.95A3.722,3.722,0,1,0,178.451,143.609Zm43.724,0H194.351a3.722,3.722,0,1,0,0,7.444h27.824A3.722,3.722,0,1,0,222.175,143.609Zm-11.924,15.879h-15.9a3.722,3.722,0,1,0,0,7.444h15.9A3.722,3.722,0,1,0,210.251,159.488ZM250,143.609H238.075a3.722,3.722,0,1,0,0,7.444H250A3.722,3.722,0,1,0,250,143.609Zm-71.549,15.879H170.5a3.722,3.722,0,1,0,0,7.444h7.95A3.722,3.722,0,1,0,178.451,159.488Z"/>
</svg>
