<svg id="icon" xmlns="http://www.w3.org/2000/svg" xmlns:xlink="http://www.w3.org/1999/xlink" width="500" height="500" viewBox="0 0 500 500">
  <metadata><?xpacket begin="﻿" id="W5M0MpCehiHzreSzNTczkc9d"?>
<x:xmpmeta xmlns:x="adobe:ns:meta/" x:xmptk="Adobe XMP Core 5.6-c138 79.159824, 2016/09/14-01:09:01        ">
   <rdf:RDF xmlns:rdf="http://www.w3.org/1999/02/22-rdf-syntax-ns#">
      <rdf:Description rdf:about=""/>
   </rdf:RDF>
</x:xmpmeta>
                                                                                                    
                                                                                                    
                                                                                                    
                                                                                                    
                                                                                                    
                                                                                                    
                                                                                                    
                                                                                                    
                                                                                                    
                                                                                                    
                                                                                                    
                                                                                                    
                                                                                                    
                                                                                                    
                                                                                                    
                                                                                                    
                                                                                                    
                                                                                                    
                                                                                                    
                                                                                                    
                           
<?xpacket end="w"?></metadata>
<defs>
    <style>
      .cls-1 {
        fill: #002121;
      }

      .cls-2 {
        font-size: 43px;
        filter: url(#filter);
        text-anchor: middle;
        font-family: Roboto;
        font-weight: 500;
      }

      .cls-2, .cls-3 {
        fill: #fff;
      }

      .cls-3 {
        fill-rule: evenodd;
        filter: url(#filter-2);
      }
    </style>
    <filter id="filter" x="86" y="343" width="349" height="125" filterUnits="userSpaceOnUse">
      <feOffset result="offset" dx="10" dy="17.321" in="SourceAlpha"/>
      <feGaussianBlur result="blur" stdDeviation="4.472"/>
      <feFlood result="flood" flood-opacity="0.2"/>
      <feComposite result="composite" operator="in" in2="blur"/>
      <feBlend result="blend" in="SourceGraphic"/>
    </filter>
    <filter id="filter-2" x="146" y="82" width="229" height="237" filterUnits="userSpaceOnUse">
      <feOffset result="offset" dx="10" dy="17.321" in="SourceAlpha"/>
      <feGaussianBlur result="blur" stdDeviation="4.472"/>
      <feFlood result="flood" flood-opacity="0.2"/>
      <feComposite result="composite" operator="in" in2="blur"/>
      <feBlend result="blend" in="SourceGraphic"/>
    </filter>
  </defs>
  <rect class="cls-1" y="-3" width="500" height="503"/>
  <text id="Price_Keyword_Filters" data-name="Price &amp; Keyword Filters" class="cls-2" x="250.022" y="378.522">Price &amp; Keyword<tspan x="250.022" dy="51.6">Filters</tspan></text>
  <path id="Forma_1" data-name="Forma 1" class="cls-3" d="M344.162,97.057c-1.342-4.507-5.588-12.2-18.961-13.033-3.059-.178-15.464.8-30.093,25.829l-52.393-.063h-0.007a5.331,5.331,0,0,0-2.447.594,5.447,5.447,0,0,0-1.613,1.181l-82.14,87.246a5.521,5.521,0,0,0,.24,7.809l78.626,73.88a5.53,5.53,0,0,0,7.812-.238l81.869-86.954a5.527,5.527,0,0,0,1.812-4.442l-3.081-49.249C339.32,126.775,347.813,109.332,344.162,97.057ZM238.921,268.672l-70.575-66.315,76.748-81.518,44.209,0.052q-3.266,6.858-6.595,15.509a16.649,16.649,0,0,0-12.9,28.845,16.876,16.876,0,1,0,23.138-24.573,15.37,15.37,0,0,0-2.033-1.535c2.486-6.175,5.3-12.4,8.28-18.236l12.35,0.015,4.143,66.227ZM289.774,152.7a8.339,8.339,0,0,1-2.279,6.01,8.616,8.616,0,0,1-11.872.364,8.4,8.4,0,0,1,4.042-14.337c-0.775,2.232-1.552,4.521-2.324,6.918a4.241,4.241,0,0,0,8.073,2.6c0.7-2.176,1.49-4.439,2.314-6.731A8.3,8.3,0,0,1,289.774,152.7Zm32.476-37.642a5.53,5.53,0,0,0-5.511-5.178l-11.352-.014c6.537-10.477,13.4-17.762,19.284-17.378,6.274,0.39,10.1,2.741,11.357,6.985,2.031,6.834-2.431,18.639-12.926,29.2Zm-70.612,75.01-4.623-4.344L242.8,190.2c-5.98-3.753-11.964-3.25-15.871.9-4.3,4.57-3.077,10.163.374,16.6,2.38,4.458,2.824,7.008,1.137,8.8-1.774,1.885-4.59,1.191-7.278-1.335a22.871,22.871,0,0,1-5.88-9.431l-6.608,4.186a26.068,26.068,0,0,0,6.113,9.562l-4.212,4.476L215.2,228.3l4.523-4.805c6.312,4.153,12.657,3.366,16.606-.828,4-4.244,4.171-8.963.421-16.217-2.591-5.276-3.31-7.819-1.846-9.373,1.242-1.32,3.476-1.708,6.543,1.173a21.451,21.451,0,0,1,5.283,7.989l6.383-4.042a23.274,23.274,0,0,0-5.378-7.983Zm-17.7-41.337a1.768,1.768,0,0,0-2.421,2.576l55.367,52.026a1.767,1.767,0,0,0,2.422-2.573Z"/>
</svg>
