<svg id="icon" xmlns="http://www.w3.org/2000/svg" xmlns:xlink="http://www.w3.org/1999/xlink" width="500" height="500" viewBox="0 0 500 500">
  <metadata><?xpacket begin="﻿" id="W5M0MpCehiHzreSzNTczkc9d"?>
<x:xmpmeta xmlns:x="adobe:ns:meta/" x:xmptk="Adobe XMP Core 5.6-c138 79.159824, 2016/09/14-01:09:01        ">
   <rdf:RDF xmlns:rdf="http://www.w3.org/1999/02/22-rdf-syntax-ns#">
      <rdf:Description rdf:about=""/>
   </rdf:RDF>
</x:xmpmeta>
                                                                                                    
                                                                                                    
                                                                                                    
                                                                                                    
                                                                                                    
                                                                                                    
                                                                                                    
                                                                                                    
                                                                                                    
                                                                                                    
                                                                                                    
                                                                                                    
                                                                                                    
                                                                                                    
                                                                                                    
                                                                                                    
                                                                                                    
                                                                                                    
                                                                                                    
                                                                                                    
                           
<?xpacket end="w"?></metadata>
<defs>
    <style>
      .cls-1 {
        fill: #002121;
      }

      .cls-2 {
        font-size: 43px;
        filter: url(#filter);
        text-anchor: middle;
        font-family: Roboto;
        font-weight: 500;
      }

      .cls-2, .cls-3 {
        fill: #fff;
      }

      .cls-3 {
        fill-rule: evenodd;
        filter: url(#filter-2);
      }
    </style>
    <filter id="filter" x="165" y="334" width="189" height="134" filterUnits="userSpaceOnUse">
      <feOffset result="offset" dx="10" dy="17.321" in="SourceAlpha"/>
      <feGaussianBlur result="blur" stdDeviation="4.472"/>
      <feFlood result="flood" flood-opacity="0.2"/>
      <feComposite result="composite" operator="in" in2="blur"/>
      <feBlend result="blend" in="SourceGraphic"/>
    </filter>
    <filter id="filter-2" x="112" y="140" width="293" height="146" filterUnits="userSpaceOnUse">
      <feOffset result="offset" dx="10" dy="17.321" in="SourceAlpha"/>
      <feGaussianBlur result="blur" stdDeviation="4.472"/>
      <feFlood result="flood" flood-opacity="0.2"/>
      <feComposite result="composite" operator="in" in2="blur"/>
      <feBlend result="blend" in="SourceGraphic"/>
    </filter>
  </defs>
  <rect class="cls-1" y="-3" width="500" height="503"/>
  <text id="Product_Sorting" data-name="Product Sorting" class="cls-2" x="248.022" y="369.522">Product<tspan x="248.022" dy="51.6">Sorting</tspan></text>
  <path id="Forma_1" data-name="Forma 1" class="cls-3" d="M180.72,146.992a4.61,4.61,0,0,0-4.153-2.614h-0.01l-5.544.011a4.609,4.609,0,0,0-4.152,2.632l-45.394,95.368A4.621,4.621,0,0,0,125.629,249h6.812a4.609,4.609,0,0,0,4.161-2.632l11.878-24.955h50.982l12.015,24.973A4.61,4.61,0,0,0,215.63,249h6.837a4.624,4.624,0,0,0,4-6.921ZM155.813,206.01l18.022-37.863,18.216,37.863H155.813ZM374.531,149.5l-2.453-4.937A4.609,4.609,0,0,0,367.95,142H299.129a4.615,4.615,0,0,0-4.611,4.62v6.162a4.616,4.616,0,0,0,4.611,4.621h53.465l-58.835,79.176a4.63,4.63,0,0,0-.429,4.819l2.453,4.938a4.609,4.609,0,0,0,4.128,2.561h68.435a4.615,4.615,0,0,0,4.61-4.621v-6.161a4.616,4.616,0,0,0-4.61-4.621H315.267L374.1,154.318A4.631,4.631,0,0,0,374.531,149.5Zm-86.407,55.876-4.84-3.8a4.6,4.6,0,0,0-6.473.79L265.6,216.712V146.621A4.616,4.616,0,0,0,260.992,142h-6.148a4.616,4.616,0,0,0-4.611,4.621v70.091l-11.208-14.347a4.6,4.6,0,0,0-6.473-.79l-4.84,3.8a4.626,4.626,0,0,0-.788,6.486l27.364,35.025a4.6,4.6,0,0,0,7.26,0l27.364-35.025A4.628,4.628,0,0,0,288.124,205.374Z"/>
</svg>
