<svg id="icon" xmlns="http://www.w3.org/2000/svg" xmlns:xlink="http://www.w3.org/1999/xlink" width="500" height="500" viewBox="0 0 500 500">
  <metadata><?xpacket begin="﻿" id="W5M0MpCehiHzreSzNTczkc9d"?>
<x:xmpmeta xmlns:x="adobe:ns:meta/" x:xmptk="Adobe XMP Core 5.6-c138 79.159824, 2016/09/14-01:09:01        ">
   <rdf:RDF xmlns:rdf="http://www.w3.org/1999/02/22-rdf-syntax-ns#">
      <rdf:Description rdf:about=""/>
   </rdf:RDF>
</x:xmpmeta>
                                                                                                    
                                                                                                    
                                                                                                    
                                                                                                    
                                                                                                    
                                                                                                    
                                                                                                    
                                                                                                    
                                                                                                    
                                                                                                    
                                                                                                    
                                                                                                    
                                                                                                    
                                                                                                    
                                                                                                    
                                                                                                    
                                                                                                    
                                                                                                    
                                                                                                    
                                                                                                    
                           
<?xpacket end="w"?></metadata>
<defs>
    <style>
      .cls-1 {
        fill: #002121;
      }

      .cls-2 {
        font-size: 48px;
        filter: url(#filter);
        text-anchor: middle;
        font-family: Roboto;
        font-weight: 500;
      }

      .cls-2, .cls-3 {
        fill: #fff;
      }

      .cls-3 {
        fill-rule: evenodd;
        filter: url(#filter-2);
      }
    </style>
    <filter id="filter" x="97" y="341" width="328" height="134" filterUnits="userSpaceOnUse">
      <feOffset result="offset" dx="10" dy="17.321" in="SourceAlpha"/>
      <feGaussianBlur result="blur" stdDeviation="4.472"/>
      <feFlood result="flood" flood-opacity="0.2"/>
      <feComposite result="composite" operator="in" in2="blur"/>
      <feBlend result="blend" in="SourceGraphic"/>
    </filter>
    <filter id="filter-2" x="139" y="87" width="243" height="243" filterUnits="userSpaceOnUse">
      <feOffset result="offset" dx="10" dy="17.321" in="SourceAlpha"/>
      <feGaussianBlur result="blur" stdDeviation="4.472"/>
      <feFlood result="flood" flood-opacity="0.2"/>
      <feComposite result="composite" operator="in" in2="blur"/>
      <feBlend result="blend" in="SourceGraphic"/>
    </filter>
  </defs>
  <rect class="cls-1" y="-3" width="500" height="503"/>
  <text id="Product_Price_Discount" data-name="Product Price Discount" class="cls-2" x="249.021" y="379.522">Product Price<tspan x="249.021" dy="57.6">Discount</tspan></text>
  <path id="Forma_1" data-name="Forma 1" class="cls-3" d="M334.206,89.92H166.643a17.733,17.733,0,0,0-17.723,17.723V275.206a17.731,17.731,0,0,0,17.723,17.723H314.192l37.737-37.737V107.643A17.739,17.739,0,0,0,334.206,89.92Zm-26.855,13.161a9.532,9.532,0,1,1-9.535,9.531A9.532,9.532,0,0,1,307.351,103.081Zm-28.466,0a9.532,9.532,0,1,1-9.529,9.531A9.53,9.53,0,0,1,278.885,103.081Zm-28.46,0a9.532,9.532,0,1,1-9.532,9.531A9.53,9.53,0,0,1,250.425,103.081Zm-28.46,0a9.532,9.532,0,1,1-9.538,9.531A9.535,9.535,0,0,1,221.965,103.081Zm-28.466,0a9.532,9.532,0,1,1-9.532,9.531A9.531,9.531,0,0,1,193.5,103.081ZM342.262,251.189l-2,2h-15.18a12.923,12.923,0,0,0-12.89,12.89v15.18l-2,2H166.643a8.065,8.065,0,0,1-8.056-8.056V133.422H342.262V251.189Zm-91.233-54.578a2.733,2.733,0,0,0,2.744.176c1.385-.629,2.744-2.115,4.11-4.456,1.347-2.341,1.951-4.264,1.819-5.784a2.851,2.851,0,0,0-1.549-2.262,2.9,2.9,0,0,0-2.756-.221c-1.372.627-2.731,2.115-4.094,4.466s-1.973,4.279-1.826,5.783A2.837,2.837,0,0,0,251.029,196.611Zm24.18,27.585a2.819,2.819,0,0,0-2.756-.183c-1.372.63-2.732,2.115-4.1,4.469s-1.969,4.286-1.818,5.778a2.82,2.82,0,0,0,1.548,2.265,2.865,2.865,0,0,0,2.75.227c1.379-.617,2.744-2.115,4.1-4.469,1.372-2.354,1.977-4.292,1.838-5.8A2.892,2.892,0,0,0,275.209,224.2Zm-95.8-22.953c3.874,2.234,12.348,2.077,21.591-.409,1.016-.271,2-0.573,2.97-0.875l1.662,25.836,72.9,42.086,42.08-72.894L247.719,152.9l-45.334,22.421,0.5,7.921c-2.011.33-4.107,0.768-6.247,1.334-9.245,2.48-16.666,6.574-18.894,10.451a4.558,4.558,0,0,0-.613,3.5A4.61,4.61,0,0,0,179.41,201.243Zm103.559,35.6a12.44,12.44,0,0,1-7.628,6.243q-4.758,1.266-10.026-1.775a14.626,14.626,0,0,1-5.324-4.978,10.19,10.19,0,0,1-1.548-6.262,14.831,14.831,0,0,1,6.394-11.077,10.277,10.277,0,0,1,6.2-1.794A14.562,14.562,0,0,1,278,219.325c3.524,2.032,5.7,4.626,6.558,7.791A12.407,12.407,0,0,1,282.969,236.84Zm-39.64-52.986a14.352,14.352,0,0,1,4.452-4.79,10.165,10.165,0,0,1,6.194-1.79,14.6,14.6,0,0,1,6.979,2.146q5.239,3.026,6.539,7.756a13.94,13.94,0,0,1-9.226,15.968q-4.738,1.254-9.988-1.775a14.634,14.634,0,0,1-5.35-4.972,10.211,10.211,0,0,1-1.539-6.262A14.6,14.6,0,0,1,243.329,183.854Zm41.768,9.5,6.023,3.474-49.859,30.663-5.95-3.437Zm-69.351-10.316a7.012,7.012,0,1,1,2.559,9.585,1.827,1.827,0,0,1-.142-0.132,10.516,10.516,0,0,0,1.741-2.1,4.215,4.215,0,0,0-1.671-6.212,10.286,10.286,0,0,0-2.552-.948A1.036,1.036,0,0,1,215.746,183.035Zm1.083,3.569a1.473,1.473,0,0,1,.63,2.385,7.987,7.987,0,0,1-1.354,1.58,7.012,7.012,0,0,1-1.236-4.661A7.823,7.823,0,0,1,216.829,186.6Zm-36.651,9.818c1.494-2.58,7.515-6.545,17.2-9.135a56.911,56.911,0,0,1,5.7-1.224l0.712,11.014q-1.666.566-3.509,1.045c-11.7,3.134-19.86,1.787-20.423-.341A1.852,1.852,0,0,1,180.178,196.422Z"/>
</svg>
