<svg id="icon" xmlns="http://www.w3.org/2000/svg" xmlns:xlink="http://www.w3.org/1999/xlink" width="500" height="500" viewBox="0 0 500 500">
  <metadata><?xpacket begin="﻿" id="W5M0MpCehiHzreSzNTczkc9d"?>
<x:xmpmeta xmlns:x="adobe:ns:meta/" x:xmptk="Adobe XMP Core 5.6-c138 79.159824, 2016/09/14-01:09:01        ">
   <rdf:RDF xmlns:rdf="http://www.w3.org/1999/02/22-rdf-syntax-ns#">
      <rdf:Description rdf:about=""/>
   </rdf:RDF>
</x:xmpmeta>
                                                                                                    
                                                                                                    
                                                                                                    
                                                                                                    
                                                                                                    
                                                                                                    
                                                                                                    
                                                                                                    
                                                                                                    
                                                                                                    
                                                                                                    
                                                                                                    
                                                                                                    
                                                                                                    
                                                                                                    
                                                                                                    
                                                                                                    
                                                                                                    
                                                                                                    
                                                                                                    
                           
<?xpacket end="w"?></metadata>
<defs>
    <style>
      .cls-1 {
        fill: #002121;
      }

      .cls-2 {
        font-size: 43px;
        filter: url(#filter);
        text-anchor: middle;
        font-family: Roboto;
        font-weight: 500;
      }

      .cls-2, .cls-3 {
        fill: #fff;
      }

      .cls-3 {
        fill-rule: evenodd;
        filter: url(#filter-2);
      }
    </style>
    <filter id="filter" x="20" y="344" width="481" height="125" filterUnits="userSpaceOnUse">
      <feOffset result="offset" dx="10" dy="17.321" in="SourceAlpha"/>
      <feGaussianBlur result="blur" stdDeviation="4.472"/>
      <feFlood result="flood" flood-opacity="0.2"/>
      <feComposite result="composite" operator="in" in2="blur"/>
      <feBlend result="blend" in="SourceGraphic"/>
    </filter>
    <filter id="filter-2" x="143" y="87" width="236" height="236" filterUnits="userSpaceOnUse">
      <feOffset result="offset" dx="10" dy="17.321" in="SourceAlpha"/>
      <feGaussianBlur result="blur" stdDeviation="4.472"/>
      <feFlood result="flood" flood-opacity="0.2"/>
      <feComposite result="composite" operator="in" in2="blur"/>
      <feBlend result="blend" in="SourceGraphic"/>
    </filter>
  </defs>
  <rect class="cls-1" y="-3" width="500" height="503"/>
  <text id="Customizable_Features_Functionalities" data-name="Customizable Features &amp; Functionalities" class="cls-2" x="250.022" y="379.522">Customizable Features<tspan x="250.022" dy="51.6">&amp; Functionalities</tspan></text>
  <path class="cls-3" d="M336.045,89h-32.9a12.97,12.97,0,0,0-12.955,12.955v32.9a12.97,12.97,0,0,0,12.955,12.955h32.9A12.97,12.97,0,0,0,349,134.857v-32.9A12.97,12.97,0,0,0,336.045,89Zm6.786,45.857a6.793,6.793,0,0,1-6.786,6.786h-32.9a6.793,6.793,0,0,1-6.786-6.786v-32.9a6.794,6.794,0,0,1,6.786-6.786h32.9a6.794,6.794,0,0,1,6.786,6.786v32.9Zm-4.605-28.5a3.085,3.085,0,0,0-4.362,0L316.3,123.915l-7.689-7.69a3.084,3.084,0,0,0-4.362,4.362l9.87,9.871a3.085,3.085,0,0,0,4.362,0l19.741-19.741A3.086,3.086,0,0,0,338.226,106.354Zm-2.181,51.74h-32.9a12.97,12.97,0,0,0-12.955,12.955v32.9a12.97,12.97,0,0,0,12.955,12.955h32.9A12.97,12.97,0,0,0,349,203.951v-32.9A12.97,12.97,0,0,0,336.045,158.094Zm6.786,45.857a6.793,6.793,0,0,1-6.786,6.786h-32.9a6.793,6.793,0,0,1-6.786-6.786v-32.9a6.794,6.794,0,0,1,6.786-6.787h32.9a6.794,6.794,0,0,1,6.786,6.787v32.9Zm-6.786,23.237h-32.9a12.97,12.97,0,0,0-12.955,12.955v32.9A12.97,12.97,0,0,0,303.143,286h32.9A12.97,12.97,0,0,0,349,273.045v-32.9A12.97,12.97,0,0,0,336.045,227.188Zm6.786,45.857a6.793,6.793,0,0,1-6.786,6.786h-32.9a6.793,6.793,0,0,1-6.786-6.786v-32.9a6.794,6.794,0,0,1,6.786-6.787h32.9a6.794,6.794,0,0,1,6.786,6.787v32.9Zm-4.605-28.5a3.084,3.084,0,0,0-4.362,0L316.3,262.1l-7.689-7.69a3.084,3.084,0,0,0-4.362,4.362l9.87,9.871a3.085,3.085,0,0,0,4.362,0l19.741-19.741A3.084,3.084,0,0,0,338.226,244.543ZM220.888,105.451h-65.8a3.085,3.085,0,1,0,0,6.169h65.8A3.085,3.085,0,1,0,220.888,105.451Zm49.353,0H234.049a3.085,3.085,0,1,0,0,6.169h36.192A3.085,3.085,0,1,0,270.241,105.451Zm0,19.741H257.08a3.085,3.085,0,0,0,0,6.17h13.161A3.085,3.085,0,1,0,270.241,125.192Zm-88.835,0H155.085a3.085,3.085,0,1,0,0,6.169h26.321A3.085,3.085,0,1,0,181.406,125.192Zm62.514,0H194.567a3.085,3.085,0,0,0,0,6.17h49.352A3.085,3.085,0,0,0,243.92,125.192Zm-23.032,49.353h-65.8a3.085,3.085,0,1,0,0,6.169h65.8A3.085,3.085,0,1,0,220.888,174.545Zm49.353,0H234.049a3.085,3.085,0,1,0,0,6.169h36.192A3.085,3.085,0,1,0,270.241,174.545Zm0,19.741H257.08a3.085,3.085,0,0,0,0,6.17h13.161A3.085,3.085,0,1,0,270.241,194.286Zm-88.835,0H155.085a3.085,3.085,0,0,0,0,6.17h26.321A3.085,3.085,0,0,0,181.406,194.286Zm62.514,0H194.567a3.085,3.085,0,0,0,0,6.17h49.352A3.085,3.085,0,0,0,243.92,194.286Zm-23.032,49.353h-65.8a3.085,3.085,0,1,0,0,6.17h65.8A3.085,3.085,0,1,0,220.888,243.639Zm49.353,0H234.049a3.085,3.085,0,0,0,0,6.17h36.192A3.085,3.085,0,1,0,270.241,243.639Zm0,19.741H257.08a3.085,3.085,0,0,0,0,6.17h13.161A3.085,3.085,0,1,0,270.241,263.38Zm-88.835,0H155.085a3.085,3.085,0,1,0,0,6.17h26.321A3.085,3.085,0,1,0,181.406,263.38Zm62.514,0H194.567a3.085,3.085,0,1,0,0,6.17h49.352A3.085,3.085,0,0,0,243.92,263.38Zm87.726-68.19-7.69-7.69,7.69-7.689a3.085,3.085,0,1,0-4.363-4.362l-7.689,7.689-7.69-7.689a3.084,3.084,0,1,0-4.362,4.362l7.69,7.689-7.69,7.69a3.084,3.084,0,0,0,4.362,4.362l7.69-7.69,7.689,7.69A3.085,3.085,0,0,0,331.646,195.19Z"/>
</svg>
