<svg id="icon" xmlns="http://www.w3.org/2000/svg" xmlns:xlink="http://www.w3.org/1999/xlink" width="500" height="500" viewBox="0 0 500 500">
  <metadata><?xpacket begin="﻿" id="W5M0MpCehiHzreSzNTczkc9d"?>
<x:xmpmeta xmlns:x="adobe:ns:meta/" x:xmptk="Adobe XMP Core 5.6-c138 79.159824, 2016/09/14-01:09:01        ">
   <rdf:RDF xmlns:rdf="http://www.w3.org/1999/02/22-rdf-syntax-ns#">
      <rdf:Description rdf:about=""/>
   </rdf:RDF>
</x:xmpmeta>
                                                                                                    
                                                                                                    
                                                                                                    
                                                                                                    
                                                                                                    
                                                                                                    
                                                                                                    
                                                                                                    
                                                                                                    
                                                                                                    
                                                                                                    
                                                                                                    
                                                                                                    
                                                                                                    
                                                                                                    
                                                                                                    
                                                                                                    
                                                                                                    
                                                                                                    
                                                                                                    
                           
<?xpacket end="w"?></metadata>
<defs>
    <style>
      .cls-1 {
        fill: #002121;
      }

      .cls-2 {
        font-size: 43px;
        filter: url(#filter);
        text-anchor: middle;
        font-family: Roboto;
        font-weight: 500;
      }

      .cls-2, .cls-3 {
        fill: #fff;
      }

      .cls-3 {
        fill-rule: evenodd;
        filter: url(#filter-2);
      }
    </style>
    <filter id="filter" x="151" y="386" width="216" height="73" filterUnits="userSpaceOnUse">
      <feOffset result="offset" dx="10" dy="17.321" in="SourceAlpha"/>
      <feGaussianBlur result="blur" stdDeviation="4.472"/>
      <feFlood result="flood" flood-opacity="0.2"/>
      <feComposite result="composite" operator="in" in2="blur"/>
      <feBlend result="blend" in="SourceGraphic"/>
    </filter>
    <filter id="filter-2" x="117" y="129" width="287" height="187" filterUnits="userSpaceOnUse">
      <feOffset result="offset" dx="10" dy="17.321" in="SourceAlpha"/>
      <feGaussianBlur result="blur" stdDeviation="4.472"/>
      <feFlood result="flood" flood-opacity="0.2"/>
      <feComposite result="composite" operator="in" in2="blur"/>
      <feBlend result="blend" in="SourceGraphic"/>
    </filter>
  </defs>
  <rect class="cls-1" y="-3" width="500" height="503"/>
  <text id="About_Us" data-name="About Us" class="cls-2" x="249.021" y="421.522">About Us</text>
  <path id="Forma_1" data-name="Forma 1" class="cls-3" d="M249.958,198.209a33.126,33.126,0,1,0-32.974-33.115A33.062,33.062,0,0,0,249.958,198.209Zm26.523,5.4H223.529c-9.474,0-17.224,8.708-17.224,19.385v53.334c0,0.583.29,1.114,0.333,1.719h86.714c0.062-.6.311-1.136,0.311-1.719V222.989C293.685,212.312,285.935,203.6,276.481,203.6ZM338.9,214.021a26.552,26.552,0,1,0-26.43-26.542A26.485,26.485,0,0,0,338.9,214.021Zm21.265,4.334H317.714c-7.605,0-13.827,6.978-13.827,15.561v42.741c0,0.457.227,0.9,0.259,1.385h69.542c0.042-.489.26-0.928,0.26-1.385V233.916C373.959,225.323,367.746,218.355,360.162,218.355Zm-199.09-4.334a26.552,26.552,0,1,0-26.439-26.542,26.483,26.483,0,0,0,26.439,26.542h0Zm21.256,4.334h-42.48c-7.594,0-13.8,6.968-13.8,15.561v42.741c0,0.457.218,0.9,0.26,1.385h69.552c0.031-.489.239-0.928,0.239-1.385V233.916C196.124,225.323,189.911,218.355,182.328,218.355Z"/>
</svg>
