<svg id="icon" xmlns="http://www.w3.org/2000/svg" xmlns:xlink="http://www.w3.org/1999/xlink" width="500" height="500" viewBox="0 0 500 500">
  <metadata><?xpacket begin="﻿" id="W5M0MpCehiHzreSzNTczkc9d"?>
<x:xmpmeta xmlns:x="adobe:ns:meta/" x:xmptk="Adobe XMP Core 5.6-c138 79.159824, 2016/09/14-01:09:01        ">
   <rdf:RDF xmlns:rdf="http://www.w3.org/1999/02/22-rdf-syntax-ns#">
      <rdf:Description rdf:about=""/>
   </rdf:RDF>
</x:xmpmeta>
                                                                                                    
                                                                                                    
                                                                                                    
                                                                                                    
                                                                                                    
                                                                                                    
                                                                                                    
                                                                                                    
                                                                                                    
                                                                                                    
                                                                                                    
                                                                                                    
                                                                                                    
                                                                                                    
                                                                                                    
                                                                                                    
                                                                                                    
                                                                                                    
                                                                                                    
                                                                                                    
                           
<?xpacket end="w"?></metadata>
<defs>
    <style>
      .cls-1 {
        fill: #002121;
      }

      .cls-2 {
        font-size: 48px;
        filter: url(#filter);
        text-anchor: middle;
        font-family: Roboto;
        font-weight: 500;
      }

      .cls-2, .cls-3 {
        fill: #fff;
      }

      .cls-3 {
        fill-rule: evenodd;
        filter: url(#filter-2);
      }
    </style>
    <filter id="filter" x="72" y="340" width="377" height="145" filterUnits="userSpaceOnUse">
      <feOffset result="offset" dx="10" dy="17.321" in="SourceAlpha"/>
      <feGaussianBlur result="blur" stdDeviation="4.472"/>
      <feFlood result="flood" flood-opacity="0.2"/>
      <feComposite result="composite" operator="in" in2="blur"/>
      <feBlend result="blend" in="SourceGraphic"/>
    </filter>
    <filter id="filter-2" x="123" y="87" width="275" height="236" filterUnits="userSpaceOnUse">
      <feOffset result="offset" dx="10" dy="17.321" in="SourceAlpha"/>
      <feGaussianBlur result="blur" stdDeviation="4.472"/>
      <feFlood result="flood" flood-opacity="0.2"/>
      <feComposite result="composite" operator="in" in2="blur"/>
      <feBlend result="blend" in="SourceGraphic"/>
    </filter>
  </defs>
  <rect class="cls-1" y="-3" width="500" height="503"/>
  <text id="Beautiful_Single_Shop_Page" data-name="Beautiful Single Shop Page" class="cls-2" x="249.021" y="379.522">Beautiful Single<tspan x="249.021" dy="57.6">Shop Page</tspan></text>
  <path class="cls-3" d="M348.242,89H151.759A19.8,19.8,0,0,0,132,108.793V216.957a19.8,19.8,0,0,0,19.759,19.793H218.6l-6.712,20.17a14.794,14.794,0,0,0-11.049,14.3v4.927H186.083a4.925,4.925,0,0,0,0,9.85H313.918a4.925,4.925,0,0,0,0-9.85h-14.75v-4.927a14.8,14.8,0,0,0-11.051-14.3l-6.711-20.17h66.836A19.8,19.8,0,0,0,368,216.957V108.793A19.8,19.8,0,0,0,348.242,89ZM284.417,266.3a4.927,4.927,0,0,1,4.918,4.925v4.927H210.667v-4.927a4.926,4.926,0,0,1,4.917-4.925h68.833Zm-62.012-9.849,6.555-19.7h42.079l6.556,19.7h-55.19Zm135.762-39.492a9.945,9.945,0,0,1-9.925,9.943H151.759a9.946,9.946,0,0,1-9.925-9.943v-4.832H328.606a4.925,4.925,0,0,0,0-9.85H141.834V108.793a9.945,9.945,0,0,1,9.925-9.943H348.242a9.942,9.942,0,0,1,9.92,9.849H172.182a4.925,4.925,0,0,0,0,9.85H358.167v98.408h0Zm-137.3-47.1h0a4.912,4.912,0,0,0,4.508,4.059l37.491,2.5V176.4a4.9,4.9,0,0,0,5.185-4.279l3.147-24.869,0.943-7.457,6.542,0.032a4.905,4.905,0,0,0,.037-9.81l-10.873-.053a4.9,4.9,0,0,0-4.877,4.291l-1.489,11.766L258.924,166.3l-29.051-1.938-2.713-15.244h19.523a4.925,4.925,0,0,0,0-9.85h-25.39v0a5.087,5.087,0,0,0-.846.072,4.922,4.922,0,0,0-4,5.695Zm12.252,11.153a4.925,4.925,0,1,0,4.916,4.924A4.931,4.931,0,0,0,233.122,181.008Zm25.064,0a4.925,4.925,0,1,0,4.916,4.924A4.931,4.931,0,0,0,258.186,181.008ZM157.1,108.7H154.9a4.925,4.925,0,0,0,0,9.85H157.1A4.925,4.925,0,0,0,157.1,108.7ZM342.8,212.125h2.079a4.925,4.925,0,0,0,0-9.85H342.8A4.925,4.925,0,0,0,342.8,212.125Z"/>
</svg>
