<svg xmlns="http://www.w3.org/2000/svg" viewBox="0 0 500 500"><defs><style>.cls-1{fill:#002121;}.cls-2,.cls-3{fill:#fb503b;}.cls-3,.cls-4{opacity:0.5;}</style></defs><title>Asset 2</title><g id="Layer_2" data-name="Layer 2"><g id="Layer_1-2" data-name="Layer 1"><rect class="cls-1" width="500" height="500"/><path class="cls-2" d="M187.14,262.83l156.11-37.4c-8.65-12.26-47.91-67.93-51.71-73.24-4.27-6,.11-8.75,7-9.92s66.66-11.2,71.78-11.95c4.3-.63,7.85-2,13.81,3.52a36.25,36.25,0,0,0-33.41-22.18H149.91a36.25,36.25,0,0,0-35.59,29.42Z"/><path class="cls-2" d="M372.6,144.41c-2.35.53-54.29,9.92-57.49,10.35s-2.13,2.24-.85,4.05L360,221.53l27-6.7V156.4c-3.76-4.8-6.47-8.28-7.15-9.21C377,143.24,374.95,143.88,372.6,144.41Z"/><path class="cls-2" d="M387,284c-13.28-18.2-27.76-38-29.14-40-1.87-2.69-2.92-3.22-7.38-1.79L198.27,281.8s46.72,80.85,50.31,86,5.78,4.79,8.57,3.59c2.16-.93,88.89-30.24,129.85-44.13Z"/><path class="cls-2" d="M387,257.22V234.34l-14.25,3.79Z"/><path class="cls-2" d="M293.53,385h57.22a36.24,36.24,0,0,0,36.13-33.45C357.65,362.1,319.84,375.66,293.53,385Z"/><path class="cls-2" d="M176.83,287.42c-17,4.45-41.38,10.82-63.17,16.46v44.87A36.24,36.24,0,0,0,149.91,385h82C221.18,367.47,192,314.87,176.83,287.42Z"/><path class="cls-2" d="M164.06,263.85l-50.39-87v103.7L163,268.78C167,267.82,166.06,267.31,164.06,263.85Z"/><path class="cls-3" d="M164,263.36c.27,1.07-.36,1.65-2.49,2.54L149.47,271l13.35,24.14,14.56-6.58"/><g class="cls-4"><path class="cls-2" d="M352.66,241.59a7,7,0,0,1,2.59,2.12c.68.78,4,4.5,8.86,9.81L383,249c-3.62-3.89-8.42-9.21-11.48-12.49"/></g><polygon class="cls-2" points="371.53 236.47 387 232.29 387 239.43 376.4 242.99 371.53 236.47"/></g></g></svg>