<svg id="icon" xmlns="http://www.w3.org/2000/svg" xmlns:xlink="http://www.w3.org/1999/xlink" width="500" height="500" viewBox="0 0 500 500">
  <metadata><?xpacket begin="﻿" id="W5M0MpCehiHzreSzNTczkc9d"?>
<x:xmpmeta xmlns:x="adobe:ns:meta/" x:xmptk="Adobe XMP Core 5.6-c138 79.159824, 2016/09/14-01:09:01        ">
   <rdf:RDF xmlns:rdf="http://www.w3.org/1999/02/22-rdf-syntax-ns#">
      <rdf:Description rdf:about=""/>
   </rdf:RDF>
</x:xmpmeta>
                                                                                                    
                                                                                                    
                                                                                                    
                                                                                                    
                                                                                                    
                                                                                                    
                                                                                                    
                                                                                                    
                                                                                                    
                                                                                                    
                                                                                                    
                                                                                                    
                                                                                                    
                                                                                                    
                                                                                                    
                                                                                                    
                                                                                                    
                                                                                                    
                                                                                                    
                                                                                                    
                           
<?xpacket end="w"?></metadata>
<defs>
    <style>
      .cls-1 {
        fill: #002121;
      }

      .cls-2 {
        font-size: 48px;
        filter: url(#filter);
        text-anchor: middle;
        font-family: Roboto;
        font-weight: 500;
      }

      .cls-2, .cls-3 {
        fill: #fff;
      }

      .cls-3 {
        fill-rule: evenodd;
        filter: url(#filter-2);
      }
    </style>
    <filter id="filter" x="134" y="378" width="256" height="86" filterUnits="userSpaceOnUse">
      <feOffset result="offset" dx="10" dy="17.321" in="SourceAlpha"/>
      <feGaussianBlur result="blur" stdDeviation="4.472"/>
      <feFlood result="flood" flood-opacity="0.2"/>
      <feComposite result="composite" operator="in" in2="blur"/>
      <feBlend result="blend" in="SourceGraphic"/>
    </filter>
    <filter id="filter-2" x="158" y="123" width="205" height="242" filterUnits="userSpaceOnUse">
      <feOffset result="offset" dx="10" dy="17.321" in="SourceAlpha"/>
      <feGaussianBlur result="blur" stdDeviation="4.472"/>
      <feFlood result="flood" flood-opacity="0.2"/>
      <feComposite result="composite" operator="in" in2="blur"/>
      <feBlend result="blend" in="SourceGraphic"/>
    </filter>
  </defs>
  <rect class="cls-1" y="-3" width="500" height="503"/>
  <text id="My_Orders" data-name="My Orders" class="cls-2" x="251.022" y="416.522">My Orders</text>
  <path class="cls-3" d="M210.941,165.685a3.181,3.181,0,0,0-3.184,3.178,7.005,7.005,0,1,1-7-6.992,3.179,3.179,0,1,0,0-6.358,13.35,13.35,0,1,0,13.373,13.35A3.18,3.18,0,0,0,210.941,165.685Zm0,37.294a3.181,3.181,0,0,0-3.184,3.178,7.005,7.005,0,1,1-7-6.993,3.179,3.179,0,1,0,0-6.357,13.35,13.35,0,1,0,13.373,13.35A3.18,3.18,0,0,0,210.941,202.979ZM248.3,209.76H224.527a3.179,3.179,0,1,0,0,6.357H248.3A3.179,3.179,0,1,0,248.3,209.76Zm0-13.562H224.527a3.179,3.179,0,1,0,0,6.357H248.3A3.179,3.179,0,1,0,248.3,196.2Zm-6.793,50.856H224.527a3.179,3.179,0,1,0,0,6.357h16.982A3.179,3.179,0,1,0,241.509,247.054Zm6.793-13.562H224.527a3.179,3.179,0,1,0,0,6.358H248.3A3.179,3.179,0,1,0,248.3,233.492Zm30.568-61.027H224.527a3.179,3.179,0,1,0,0,6.358h54.342A3.179,3.179,0,1,0,278.87,172.465ZM265.284,158.9H224.527a3.179,3.179,0,1,0,0,6.357h40.757A3.179,3.179,0,1,0,265.284,158.9Zm-54.343,81.369a3.182,3.182,0,0,0-3.184,3.179,7.005,7.005,0,1,1-7-6.993,3.179,3.179,0,1,0,0-6.357,13.35,13.35,0,1,0,13.373,13.349A3.18,3.18,0,0,0,210.941,240.273ZM292.455,125H176.977A9.98,9.98,0,0,0,167,134.959v142.4a9.98,9.98,0,0,0,9.977,9.96h57.739a3.179,3.179,0,1,0,0-6.358H176.977a3.61,3.61,0,0,1-3.609-3.6v-142.4a3.61,3.61,0,0,1,3.609-3.6H292.455a3.61,3.61,0,0,1,3.609,3.6v105.1a3.184,3.184,0,0,0,6.368,0v-105.1A9.98,9.98,0,0,0,292.455,125Zm30.063,128.894a11.768,11.768,0,0,0-8.259,2.317,11.6,11.6,0,0,0-8.723-5.707,11.767,11.767,0,0,0-8.259,2.317,11.594,11.594,0,0,0-8.724-5.707,11.78,11.78,0,0,0-6.5,1.216V207.853a11.668,11.668,0,0,0-12.868-11.595A12.032,12.032,0,0,0,258.7,208.336v40.58l-9.36,9.344a19.978,19.978,0,0,0-5.37,18.845l7.106,30.147A26.845,26.845,0,0,0,277.321,328H306.04A26.966,26.966,0,0,0,333,301.089V265.973A12.033,12.033,0,0,0,322.518,253.894Zm4.113,47.194a20.6,20.6,0,0,1-20.59,20.554h-28.72A20.5,20.5,0,0,1,257.278,305.8l-7.106-30.147a13.67,13.67,0,0,1,3.674-12.894L258.7,257.9v10.974a3.185,3.185,0,0,0,6.369,0V208.336a5.623,5.623,0,0,1,4.748-5.753,5.306,5.306,0,0,1,5.866,5.27v55.941a3.184,3.184,0,0,0,6.368,0v-5.085a5.306,5.306,0,0,1,5.866-5.27,5.623,5.623,0,0,1,4.748,5.753v7.992a3.185,3.185,0,0,0,6.369,0V262.1a5.3,5.3,0,0,1,5.865-5.269,5.623,5.623,0,0,1,4.749,5.753v7.992a3.184,3.184,0,0,0,6.368,0v-5.086a5.3,5.3,0,0,1,5.866-5.269,5.623,5.623,0,0,1,4.748,5.752v35.117h0Z"/>
</svg>
