<svg xmlns="http://www.w3.org/2000/svg" viewBox="0 0 500 500"><defs><style>.cls-1{fill:#002121;}.cls-2{fill:#fb503b;}.cls-3{font-size:48px;fill:#fff;font-family:Roboto-Medium, Roboto;}.cls-4{letter-spacing:-0.01em;}.cls-5{letter-spacing:-0.01em;}</style></defs><title>Asset 3</title><g id="Layer_2" data-name="Layer 2"><g id="Layer_1-2" data-name="Layer 1"><rect class="cls-1" width="500" height="500"/><path class="cls-2" d="M398.33,210c-2-2.23-29.34-36.47-34.16-42.28S357,162.94,354,163.37s-37.59,6.24-41.6,6.92-6.55,2.29-4.08,5.75c2.2,3.08,25,35.34,30,42.45l-90.48,21.67-72-120.3c-2.86-4.25-3.46-5.73-10-5.43s-56.45,4.44-60,4.74-7.46,1.88-3.9,10.27S162.26,260,163.84,263.59s5.69,9.32,15.31,7c9.86-2.37,44-11.29,62.72-16.18,9.87,17.87,30,54.13,33.72,59.32,5,6.94,8.39,5.79,16,3.48,6-1.8,93.21-33.18,97.14-34.8s6.36-2.77,3.7-6.7c-2-2.89-25-33.72-37-49.86,8.26-2.2,37.62-10,40.75-10.86C399.81,214,400.3,212.21,398.33,210ZM233.84,243.61c-1.08.23-51.76,12.36-54.46,13s-2.7.31-3-.62S116.12,131.45,115.29,129.9s-.79-2.77,0-2.77,47.86-4.21,49.52-4.29,1.49.26,2.1,1.31l67.55,116.6C235.62,242.76,234.93,243.38,233.84,243.61Zm142.88,26.78c.81,1.27,1.62,2.08-.93,3s-85.76,29-87.38,29.71-2.89.92-5-2.08-29.16-49.86-29.16-49.86l88.22-23c2.2-.69,2.89-1.16,4.28,1S375.91,269.12,376.72,270.39Zm5.66-62.64c-2,.43-34.37,8.47-34.37,8.47l-26.49-36.35c-.74-1.05-1.36-2.1.49-2.35s32-5.69,33.32-6,2.53-.68,4.2,1.61,24.58,31.28,25.44,32.39S384.36,207.33,382.38,207.76Z"/><text class="cls-3" transform="translate(175 421)">Lar<tspan class="cls-4" x="68.7" y="0">a</tspan><tspan class="cls-5" x="94.43" y="0">v</tspan><tspan x="118.43" y="0">el</tspan></text></g></g></svg>